<?xml version="1.0" standalone="no"?>
<!DOCTYPE svg PUBLIC "-//W3C//DTD SVG 20010904//EN"
 "http://www.w3.org/TR/2001/REC-SVG-20010904/DTD/svg10.dtd">
<svg version="1.0" xmlns="http://www.w3.org/2000/svg"
 width="1681.000000pt" height="1681.000000pt" viewBox="0 0 1681.000000 1681.000000"
 preserveAspectRatio="xMidYMid meet">
<metadata>
Created by potrace 1.14, written by Peter Selinger 2001-2017
</metadata>
<g transform="translate(0.000000,1681.000000) scale(0.100000,-0.100000)"
fill="#000000" stroke="none">
<path d="M4269 14766 c-7 -14 -16 -23 -20 -20 -5 3 -9 1 -9 -5 0 -5 -6 -16
-13 -23 -17 -17 -129 -183 -153 -228 -10 -19 -25 -41 -32 -48 -7 -8 -10 -17
-7 -22 3 -5 1 -10 -3 -12 -19 -8 -130 -261 -148 -338 -4 -19 -9 -42 -11 -50
-14 -54 -18 -99 -17 -205 0 -179 42 -293 137 -374 91 -78 238 -161 285 -161
50 0 113 75 195 233 163 314 150 559 -51 977 -36 74 -77 171 -93 215 -15 44
-32 81 -38 83 -6 2 -16 -8 -22 -22z"/>
<path d="M12269 14763 c-11 -112 -120 -286 -228 -362 -18 -13 -53 -30 -78 -37
-48 -15 -83 -39 -83 -58 -1 -17 -42 -95 -88 -165 -55 -83 -83 -174 -88 -281
-4 -94 16 -212 46 -270 39 -74 110 -130 165 -130 43 0 124 41 218 109 182 133
262 238 326 429 51 152 37 308 -48 527 -33 85 -45 108 -94 193 -29 47 -46 64
-48 45z"/>
<path d="M9724 14636 c-17 -7 -45 -31 -63 -52 -32 -39 -190 -343 -251 -484
-18 -41 -70 -153 -116 -248 -46 -95 -83 -175 -83 -178 0 -4 -3 -10 -8 -13 -12
-9 -83 -151 -83 -168 0 -7 -4 -13 -8 -13 -9 0 -42 -64 -42 -81 0 -5 -5 -15
-11 -22 -9 -10 -46 -74 -163 -283 -24 -42 -33 -43 -41 -1 -10 48 -54 178 -70
207 l-14 25 -1 -25 c-5 -177 -98 -343 -262 -470 -11 -8 -36 -29 -56 -47 -20
-18 -52 -40 -69 -50 -18 -10 -33 -21 -33 -25 0 -5 -5 -8 -10 -8 -6 0 -28 -11
-50 -25 l-40 -25 -94 92 c-115 114 -236 228 -236 222 0 -2 -15 10 -33 28 -18
18 -44 42 -58 53 -25 21 -145 122 -165 140 -86 77 -180 163 -223 204 -30 28
-58 51 -62 51 -5 0 -9 6 -9 14 0 8 -4 16 -10 18 -5 2 -85 77 -178 168 -198
193 -310 300 -317 300 -2 0 -15 10 -29 23 -64 57 -76 67 -83 68 -5 1 -18 5
-31 10 -40 15 -84 10 -172 -22 -47 -16 -89 -31 -95 -33 -5 -1 -28 -10 -50 -20
-22 -10 -44 -19 -50 -20 -5 -1 -32 -12 -60 -25 -27 -12 -58 -24 -69 -26 -10
-3 -23 -8 -30 -13 -6 -5 -56 -26 -111 -47 -55 -21 -118 -46 -140 -56 -23 -10
-54 -21 -70 -25 -17 -4 -36 -11 -42 -17 -7 -5 -13 -6 -13 -1 0 5 -4 4 -8 -1
-21 -29 -106 -39 -174 -19 -24 7 -58 14 -101 20 -60 9 -66 -2 -55 -104 3 -20
-6 -27 -54 -47 -32 -13 -58 -21 -58 -18 0 3 -6 1 -12 -5 -13 -10 -169 -65
-478 -170 -96 -33 -187 -65 -202 -71 -16 -6 -28 -8 -28 -5 0 4 -6 2 -12 -3
-11 -9 -80 -35 -98 -38 -3 0 -16 -7 -30 -15 -14 -7 -27 -13 -30 -13 -3 0 -18
-5 -35 -11 -16 -5 -33 -9 -37 -8 -5 1 -8 -2 -8 -6 0 -5 -6 -9 -12 -10 -7 0
-43 -12 -80 -26 -63 -24 -78 -28 -140 -40 -28 -6 -177 -21 -245 -25 -13 0 -23
-6 -23 -12 0 -5 4 -7 10 -4 11 7 244 7 387 0 104 -5 182 -13 278 -30 80 -14
70 -35 -17 -36 -84 -2 -103 -3 -241 -18 -148 -16 -176 -20 -232 -31 -27 -5
-72 -12 -98 -15 -27 -2 -52 -7 -55 -9 -4 -2 -31 -7 -61 -10 -29 -4 -57 -9 -62
-12 -5 -3 -59 -7 -120 -10 -87 -4 -122 -2 -165 12 -30 9 -54 21 -54 25 0 5 -3
8 -7 8 -5 -1 -16 -1 -25 0 -20 1 -24 27 -6 33 8 3 2 11 -13 22 -17 10 -53 18
-102 20 -41 2 -85 10 -97 16 -24 13 -24 12 -6 -65 9 -37 24 -68 63 -129 24
-37 43 -69 41 -71 -10 -8 -291 -107 -297 -105 -2 1 -7 -2 -10 -7 -5 -6 -107
-47 -146 -57 -5 -2 -23 -9 -40 -16 -16 -7 -36 -14 -43 -16 -8 -1 -21 -6 -30
-10 -9 -4 -19 -8 -22 -9 -3 -1 -23 -9 -45 -19 -22 -10 -49 -19 -60 -22 -11 -2
-29 -8 -40 -13 -11 -6 -83 -33 -160 -61 -77 -28 -156 -58 -175 -66 -20 -8 -42
-16 -50 -18 -8 -2 -22 -6 -30 -9 -54 -22 -369 -138 -385 -142 -11 -2 -56 -18
-100 -35 -44 -17 -88 -33 -99 -35 -10 -2 -24 -9 -30 -15 -7 -5 -15 -7 -19 -4
-3 3 -18 -3 -33 -13 -16 -10 -30 -16 -31 -14 -2 1 -16 -2 -31 -7 -15 -6 -74
-27 -132 -47 -58 -20 -116 -43 -130 -50 -14 -7 -29 -14 -35 -14 -13 -1 -75
-20 -100 -31 -36 -15 -99 -37 -180 -65 -44 -14 -90 -33 -102 -41 -26 -17 -63
-93 -70 -144 -6 -40 10 -58 168 -204 35 -32 98 -91 139 -130 104 -98 240 -221
330 -297 41 -35 80 -69 85 -75 6 -6 60 -53 120 -104 61 -51 112 -96 115 -99 3
-4 30 -26 60 -51 30 -25 57 -47 60 -50 3 -3 43 -37 90 -75 47 -38 87 -72 90
-75 3 -3 28 -23 55 -45 28 -22 55 -44 61 -50 6 -5 54 -46 107 -90 53 -44 101
-90 108 -103 11 -19 9 -26 -13 -50 -14 -15 -23 -33 -21 -39 5 -14 -20 -43 -36
-43 -6 0 -11 -3 -11 -7 0 -5 -10 -13 -23 -18 -48 -23 -132 -70 -138 -78 -3 -5
-9 -8 -13 -8 -6 2 -59 -27 -149 -81 -26 -15 -49 -28 -52 -28 -3 0 -29 -16 -59
-35 -30 -19 -60 -35 -66 -35 -5 0 -10 -4 -10 -8 0 -5 -18 -17 -40 -27 -22 -10
-40 -21 -40 -24 0 -4 -12 -12 -28 -19 -50 -23 -72 -37 -72 -44 0 -5 -4 -8 -10
-8 -5 0 -34 -16 -64 -35 -30 -19 -60 -35 -66 -35 -6 0 -13 -7 -16 -15 -4 -8
-10 -12 -15 -9 -5 3 -9 0 -9 -5 0 -6 -4 -11 -9 -11 -7 0 -107 -56 -179 -102
-15 -9 -51 -29 -79 -45 -29 -15 -53 -31 -53 -35 0 -4 -6 -8 -14 -8 -7 0 -19
-7 -26 -15 -7 -8 -16 -12 -21 -9 -5 3 -9 0 -9 -5 0 -6 -4 -11 -9 -11 -6 0 -50
-25 -100 -55 -50 -30 -93 -55 -96 -55 -2 0 -35 -19 -72 -43 -38 -24 -85 -52
-106 -62 -22 -11 -47 -24 -58 -30 -10 -5 -19 -13 -19 -17 0 -5 -9 -8 -20 -8
-11 0 -20 -4 -20 -10 0 -5 -7 -10 -15 -10 -8 0 -15 -5 -15 -10 0 -6 -3 -9 -7
-8 -8 3 -117 -56 -143 -77 -8 -7 -35 -23 -60 -36 -25 -13 -47 -27 -50 -30 -3
-3 -25 -18 -50 -32 -71 -42 -91 -64 -92 -95 -1 -39 22 -132 33 -132 5 0 9 -6
9 -14 0 -19 68 -78 150 -131 39 -25 72 -45 75 -45 3 0 34 -18 70 -40 36 -22
67 -40 70 -40 2 0 53 -26 112 -59 59 -32 167 -89 238 -126 72 -37 159 -83 195
-103 36 -19 97 -51 135 -72 39 -21 259 -133 489 -250 231 -117 436 -222 455
-232 51 -29 223 -135 244 -152 17 -13 18 -45 23 -453 5 -448 6 -487 17 -513
18 -46 25 -139 27 -347 1 -220 0 -232 -19 -250 -19 -18 -21 -33 -24 -304 -3
-268 -7 -316 -27 -304 -12 8 -134 17 -229 18 -192 1 -435 -38 -596 -95 -33
-12 -62 -23 -63 -24 -4 -2 131 -134 193 -189 53 -47 282 -225 307 -238 12 -7
34 -20 48 -29 108 -72 412 -94 582 -43 44 13 138 58 188 91 25 16 30 14 225
-81 110 -54 306 -142 435 -197 129 -56 264 -114 300 -130 36 -17 133 -61 215
-98 208 -94 561 -259 805 -377 113 -55 221 -107 240 -115 19 -9 55 -25 80 -36
25 -11 154 -67 285 -125 234 -103 326 -145 530 -242 55 -26 156 -75 225 -107
69 -33 150 -71 180 -85 30 -14 138 -66 240 -116 102 -49 230 -111 285 -137 55
-26 153 -73 218 -104 65 -31 120 -56 121 -56 2 0 62 -27 132 -61 71 -34 237
-111 369 -171 132 -61 283 -131 335 -155 52 -25 174 -81 270 -125 96 -44 208
-96 248 -115 89 -42 170 -70 198 -67 75 5 158 48 458 236 247 155 449 279 476
291 8 4 44 25 80 48 36 23 84 52 107 65 24 13 100 59 170 102 136 84 361 220
391 237 72 41 322 197 557 350 242 157 349 223 665 410 30 18 109 63 175 100
66 38 134 76 150 85 17 9 82 48 145 86 63 38 127 75 141 84 14 8 86 52 160 98
74 46 175 108 224 139 228 139 441 271 562 348 73 46 136 85 141 87 4 1 54 32
110 68 57 36 122 76 145 89 23 13 66 40 97 60 30 20 64 41 75 47 29 16 277
162 295 174 8 5 44 26 80 46 36 21 67 41 68 46 2 4 8 8 13 8 8 0 109 59 119
69 3 4 21 14 40 24 19 10 71 43 114 75 l80 57 12 68 c20 105 24 186 29 552 7
484 16 1068 17 1081 2 15 93 75 383 255 83 51 305 192 495 314 190 122 415
266 500 320 85 54 214 136 285 183 72 47 155 101 185 121 100 65 282 202 321
242 75 77 112 202 80 269 -16 33 -94 98 -118 99 -7 1 -13 4 -13 9 0 4 -10 12
-23 18 -12 6 -186 110 -387 231 -308 185 -552 328 -753 442 -23 13 -58 33 -77
46 -84 54 -494 290 -695 400 -83 46 -161 101 -168 118 -3 7 23 42 57 78 33 36
96 103 139 149 44 47 188 197 320 333 294 302 358 369 634 663 104 111 133
147 134 165 1 10 2 25 2 32 2 36 -17 118 -34 146 -18 29 -83 67 -128 74 -9 1
-20 5 -26 8 -9 6 -78 30 -100 35 -5 2 -68 24 -140 49 -71 25 -138 48 -147 50
-15 3 -110 35 -158 53 -8 3 -19 4 -24 3 -4 -1 -13 2 -20 7 -6 5 -29 14 -51 20
-22 7 -78 24 -125 39 -47 15 -87 28 -90 28 -55 13 -282 84 -302 95 -10 6 -28
10 -41 10 -13 0 -27 4 -32 8 -6 5 -84 33 -175 62 -91 30 -169 57 -173 61 -5 4
12 69 38 144 26 75 48 144 50 154 2 9 16 57 30 106 31 109 45 170 47 205 2 44
-19 56 -68 35 -19 -8 -37 -14 -39 -14 -3 0 -20 -8 -38 -18 -17 -9 -34 -18 -37
-18 -3 0 -59 -27 -124 -58 -65 -31 -123 -57 -127 -57 -5 0 -9 -4 -9 -10 0 -5
-9 -10 -19 -10 -11 0 -21 -3 -23 -7 -2 -5 -28 -21 -58 -37 -67 -35 -164 -98
-168 -108 -2 -5 -8 -8 -14 -8 -11 0 -97 -66 -109 -83 -8 -11 -82 -3 -124 13
-16 6 -32 12 -35 12 -3 1 -41 14 -85 30 -44 16 -80 28 -80 28 0 -2 -34 10 -75
25 -19 7 -39 14 -45 15 -17 4 -38 11 -80 27 -22 8 -47 17 -55 18 -8 2 -60 20
-115 40 -55 20 -107 38 -115 40 -8 2 -53 17 -100 35 -47 17 -130 46 -185 65
-55 18 -174 59 -265 90 -91 32 -169 58 -175 60 -5 1 -21 7 -35 12 -14 6 -101
36 -195 67 -93 32 -179 61 -190 66 -11 4 -29 11 -40 14 -11 2 -74 23 -140 46
-66 23 -127 43 -135 46 -25 6 -370 122 -447 150 -70 25 -74 29 -110 87 -77
128 -258 405 -322 496 -36 51 -73 103 -81 115 -8 11 -25 32 -38 46 -13 14 -30
37 -39 52 -24 40 -193 202 -230 222 -46 23 -112 29 -149 12z"/>
<path d="M3860 13110 c-8 -5 -10 -10 -5 -10 6 0 17 5 25 10 8 5 11 10 5 10 -5
0 -17 -5 -25 -10z"/>
<path d="M1017 7674 c-1 -1 -27 -4 -58 -7 -31 -4 -68 -11 -82 -16 -15 -6 -27
-8 -27 -5 0 2 -13 -2 -30 -11 -16 -8 -31 -15 -32 -14 -13 8 -178 -69 -178 -82
0 -10 9 -11 128 -13 82 -1 143 10 112 22 -65 23 4 73 105 76 86 2 133 -41 142
-129 7 -68 -17 -111 -87 -154 -49 -30 -49 -31 -38 -63 25 -73 172 -275 252
-345 111 -98 317 -157 551 -158 121 0 166 12 183 50 11 23 10 33 -4 100 -19
89 -101 242 -204 380 -112 149 -180 201 -381 294 -37 17 -73 31 -81 31 -8 0
-18 3 -22 8 -4 4 -11 7 -14 7 -4 1 -16 4 -27 8 -35 11 -199 28 -208 21z"/>
</g>
</svg>
