<?xml version="1.0" encoding="UTF-8"?>
<svg id="Calque_1" xmlns="http://www.w3.org/2000/svg" version="1.1" viewBox="0 0 160 160">
  <!-- Generator: Adobe Illustrator 29.4.0, SVG Export Plug-In . SVG Version: 2.1.0 Build 29)  -->
  <defs>
    <style>
      .st0 {
        fill: #78191f;
      }

      .st1 {
        fill: #e57f57;
      }

      .st2 {
        fill: #fde8cd;
      }

      .st3 {
        fill: #fe5d44;
      }

      .st4 {
        fill: #f8cc84;
      }

      .st5 {
        fill: #ca5a4b;
      }

      .st6 {
        fill: #f0a96f;
      }

      .st7 {
        fill: #fdfdfd;
      }
    </style>
  </defs>
  <path class="st5" d="M27.36,94.66c-.03-1.78-.07-3.57-.07-5.35,0-.43-.14-.7-.5-.91-.78-.45-1.54-.93-2.31-1.39.1,0,.21-.05.29-.01.94.43,1.89.83,2.8,1.31,2.04,1.07,4.07,2.18,6.08,3.32.76.43,1.55.8,2.34,1.19,3.25,1.62,6.4,3.43,9.61,5.12,3.08,1.62,6.23,3.1,9.29,4.75,1.99,1.07,3.99,2.1,5.99,3.14,0,.06-.01.14.02.16.3.24.58.15.87-.04,1.32-.89,2.58-1.87,3.85-2.83,2.39-1.8,4.73-3.68,7.25-5.32.07-.05.17-.08.16-.18-.02-.26.19-.33.35-.45.73-.51,1.46-1.02,2.18-1.53,1.89-1.33,3.73-2.72,5.69-3.95.14-.09.3-.26.46-.16.13.08.05.29.05.45,0,2.65,0,5.29.1,7.94,0,.1-.04.22.15.3.06-.59.09-1.18.05-1.76-.05-.72-.09-1.44,0-2.15.16-1.29.32-2.58.39-3.88.03-.52.23-.91.65-1.19.27-.18.56-.34.85-.5.2-.11.3-.08.48.05,1.03.75,2.06,1.5,3.18,2.13.29.16.36.19.66.19-1.68-1.03-3.27-2.08-4.7-3.34.35-.32.63-.7.88-1.1.13-.22.23-.22.42-.05.34.31.71.58,1.06.86.71.47,1.41.96,2.14,1.41.7.44,1.38.92,2.17,1.19-.03.44.34.51.62.67.03,0,.05,0,.08.01h0c.62.54,1.33.93,2.03,1.37,1.09.68,2.16,1.42,3.36,1.92.68.28,1.42.4,2.07.77-.25.18.05.47-.14.65.07.01.13.03.2.04.15.28.47.34.7.51.25.13.52.25.76.41,1.47.95,2.97,1.87,4.51,2.7.48.26.92.59,1.46.71.37.39.87.6,1.31.89.37.24.72.25,1.12.02,1.48-.86,2.93-1.75,4.38-2.65l.1-.05c.1-.06.19-.13.29-.19.02,0,.04,0,.05-.01.85-.49,1.68-1.02,2.51-1.55.91-.58,1.85-1.14,2.77-1.7.13-.03.24-.08.33-.18.07-.06.14-.11.22-.17.08-.02.17-.03.24-.06,1.33-.72,2.66-1.42,3.97-2.18,2.32-1.35,4.52-2.9,6.81-4.31,2.89-1.79,5.79-3.57,8.76-5.23.48-.26.93-.57,1.39-.86.81-.52,1.68-.95,2.44-1.53.57-.21,1.04-.59,1.56-.9,2.33-1.4,4.7-2.76,6.88-4.41.39-.3.82-.57,1.07-1.04.26-.49.24-.54-.26-.81-1.69-.94-3.37-1.9-5.06-2.85-1.16-.65-2.33-1.29-3.5-1.95-.22-.12-.35-.13-.51.13-.33.55-.79,1-1.38,1.24-.42.18-.89.23-1.24.57-.3.29-.73.51-.91.88-.16.33-.37.4-.65.41-.6.01-1.2.08-1.79.19-1.07.19-2.15.39-3.07,1.03-.24.14-.42.34-.56.58-.55.97-.87,2.02-.94,3.13-1.85-.02-3.68.26-5.51.44-1.4.14-2.75.48-4.07.94-.94.33-1.91.48-2.87.67-.97.19-1.97.3-2.96.41-1.76.2-3.5.51-5.26.65-1.49.12-3,.17-4.46.56-.17.05-.25.02-.19-.18.09-.29-.11-.28-.31-.3-.86-.07-1.71-.11-2.57,0-.66.09-1.33.19-2,.23-.66.04-1.31.15-1.97.12-.19,0-.31-.06-.29-.27.04-.36-.19-.39-.43-.32-.54.15-1.08.3-1.6.49-2.67.98-5.3,2.03-7.99,2.95-.18-.18-.35-.36-.53-.55.63-.19,1.26-.38,1.89-.59,3.82-1.23,7.64-2.46,11.24-4.25.53-.26,1.02-.58,1.59-.76.59.08,1.03-.28,1.49-.54,2.24-1.28,4.38-2.69,6.47-4.2.6-.44,1.16-.93,1.83-1.28,1.16-.6,2.32-1.17,3.49-1.75.47-.24.94-.49,1.45-.61.07.18-.13.3-.13.54,3.57-2.04,7.42-3.38,11.03-5.24-1.56.49-2.95,1.39-4.54,1.8.53-.47,1.16-.75,1.79-1.05,1.51-.72,2.91-1.68,4.47-2.32.12-.05.32-.08.31-.25,0-.18-.24-.12-.33-.22.23-.15.3-.37.31-.62,2.69-2.24,4.93-4.93,7.3-7.48.69-.74,1.4-1.47,2.07-2.23.65-.72,1.24-1.49,1.9-2.2.33-.35.59-.78,1.03-1.02.22.25.22.57.3.87.32,1.09-.57,1.58-1.11,2.17-2.57,2.84-5.29,5.53-7.93,8.3-.61.64-1.18,1.3-1.8,1.92-.28.28-.21.45.07.65.78.56,1.65.98,2.48,1.46,5.14,2.98,10.3,5.93,15.36,9.05.34.21.64.48.99.67.32.17.31.54.29.84-.04.78-.34,1.45-.95,1.96-1.39,1.17-2.92,2.15-4.45,3.12-4.48,2.85-8.91,5.78-13.44,8.54-.5.31-.7.65-.71,1.24-.02,3.43-.07,6.85-.13,10.28-.01.79-.07,1.58-.13,2.37-.03.38-.12.75-.17,1.13-.04.32-.31.44-.52.59-1.11.8-2.3,1.48-3.48,2.17-3.74,2.16-7.37,4.5-11.05,6.76-1.61.99-3.24,1.95-4.84,2.96-3,1.89-6.17,3.51-9.17,5.42-1.87,1.19-3.69,2.45-5.6,3.59-.13.08-.28.15-.42.22-.15-.28-.36-.19-.54-.07-.51.31-1.02.64-1.53.96-3.31,2.1-6.73,4.03-10.08,6.07-.7.43-1.39.85-2.09,1.28-.17.11-.27.23-.07.4-.66.47-1.35.46-2.07.12-1.43-.67-2.87-1.32-4.3-1.98-2.13-.98-4.26-1.97-6.39-2.96-.13-.06-.25-.13-.38-.2.1-.12.18-.02.26.02,1.63.74,3.3,1.37,4.92,2.15,1.2.58,2.42,1.11,3.64,1.64.92.4,1.82.86,2.78,1.14.23.07.47.17.65-.1,0-.26.04-.52,0-.78-.24-1.35-.29-2.71-.31-4.07-.05-2.6-.15-5.2-.11-7.8.02-1.19,0-2.39-.02-3.58.06-.3-.07-.59-.06-.88.02-.34-.1-.47-.43-.43.08-1.89.16-3.79.24-5.68v-4.11s-.09,0-.13-.01c-.13.99-.55,1.85-1.11,2.65-.17.25-.37.47-.47.76-.08.09-.17.18-.25.27-.33.02-.58.17-.8.44-.33.43-.67.87-1.09,1.21-.22.17-.48.4-.77.07-.05-.06-.13-.08-.19-.03-.35.3-.86.26-1.21.53-.34.26-.72.42-1.09.59-1.06.48-2.19.72-3.32.97-.32.07-.55-.11-.5-.4.11-.71.24-1.41.57-2.06.2-.4.5-.83.48-1.23-.06-1.14-.04-2.27-.02-3.4.01-.8-.54-1.12-1.06-1.65.07,1.34-.02,2.54-.07,3.74-.02.39-.05.77-.09,1.15-.04.3-.17.5-.49.63-1.31.52-2.68.84-4.05,1.14-.42.09-.85.11-1.28.16.25-.24.56-.29.85-.38.13-.04.32.01.36-.18.03-.16-.14-.24-.24-.33-.84-.74-1.64-1.51-2.52-2.19-1.21-.94-2.38-1.93-3.57-2.88-1.2-.96-2.41-1.89-3.56-2.91-.19-.17-.21-.53-.56-.52.01-.2-.17-.21-.29-.27-.78-.42-1.56-.85-2.34-1.25-.57-.29-1.13-.62-1.74-.83-.12-.09-.24-.15-.39-.16-.95-.66-2-1.13-3.07-1.55h0s-.05-.04-.07-.06c-.02-.02-.04-.03-.06-.04-.03,0-.06,0-.08-.01-.21-.05-.21-.05-.22.23-.04,1.1.07,2.21-.08,3.31-.07.46-.18.58-.61.42-.44-.16-.88-.35-1.3-.56-1.48-.73-2.96-1.47-4.4-2.28-.78-.44-1.55-.86-2.16-1.54-1.09-1.22-2.18-2.43-3.29-3.64-.81-.89-1.58-1.81-2.33-2.75-.36-.45-.64-.99-1.13-1.29-1.18-.72-2.43-1.29-3.67-1.9-.2-.1-.3-.05-.3.18,0,.63-.13,1.26-.09,1.89.1,1.34-.25,2.65-.27,3.98,0,.1-.05.16-.15.18,0-.11,0-.22,0-.34.11-.15.12-.29,0-.44ZM94.64,97.34s.06.06.09.09c.04.07.1.09.17.09.32.41.78.62,1.22.85,1.36.86,2.72,1.72,4.07,2.59.24.15.49.3.63.57.08.15.19.32.4.26.13-.04.32-.14.33-.24.03-.19-.19-.25-.33-.33-1.67-.98-3.35-1.95-5.03-2.93-.4-.32-.83-.57-1.29-.77-.04-.07-.1-.08-.17-.09-.03-.03-.06-.06-.09-.09l-.06-.05s-.01.02-.02.03c.03,0,.05.01.08.02ZM114.3,79.72c-1.22-.03-2.53.05-3.83.24-1.1.16-2.2.33-3.28.62-.09.02-.24-.04-.24.11,0,.15.15.14.27.15.09,0,.17,0,.26,0,1.65-.01,3.29.02,4.94-.15,1.3-.14,2.57-.39,3.84-.65.09-.02.27-.02.27-.16,0-.17-.18-.15-.31-.15-.6,0-1.21,0-1.91,0ZM88.35,93.52c.36.45.8.82,1.29,1.11.08.05.17.02.22-.07.04-.09.03-.18-.04-.23-.46-.32-.9-.67-1.47-.81Z"/>
  <path class="st3" d="M83.86,39.55c.02.06.03.12.05.18-.02.05-.04.11-.06.16,0,.26.03.52.04.77.03.87.17,1.75-.14,2.61-.11.31-.36.52-.5.83.18.02.3-.06.39-.13,1.11-.92,2.49-1.18,3.81-1.61.38-.12.83-.1,1.12-.44.23-.08.46-.16.69-.24,0,.03.02.05.05.05-.13.17-.27.34-.4.52-.64.38-1.28.75-1.92,1.13,1.08-.2,2.14-.37,3.22-.48,1.05-.1,2.09-.04,3.13.06,1.08.1,2.15.26,3.23.4.11.01.2-.02.21-.15.23,0,.46,0,.69,0-.01.1-.07.13-.17.16-.58.21-1.19.28-1.78.43-.56.14-1.15.13-1.69.38.52.09,1.01.37,1.55.14.57,0,1.13-.01,1.7-.12.42-.08.81-.27,1.25-.23h0c-.43.49-1.09.6-1.73.95.61.15,1.1.26,1.56.46,1.99.88,3.71,2.17,5.26,3.67,1.72,1.66,3.27,3.47,4.61,5.45.67.98,1.53,1.66,2.69,1.93.27.06.54.15.83.24-.19.19-.4.24-.61.3-.17.05-.3.11-.23.33-.1.6-.39,1.16-.36,1.78-.02.03-.04.08-.07.1-1.37.99-3.01,1.44-4.52,2.13-.17.08-.35.02-.32-.24.03-.2.06-.39.08-.59.18-1.66.57-3.23,1.9-4.4.04-.02.07-.04.11-.06-.06-.06-.1-.02-.14.02-1.08.1-1.89.64-2.38,1.6-.64,1.28-.54,2.57-.02,3.86-.09.24-.31.32-.51.42-1.21.56-2.31,1.31-3.45,1.99-.11.06-.19.13-.17.27-.09.06-.18.12-.27.18-.07,0-.13,0-.16.08-.54.47-1.21.77-1.7,1.33.96-.37,1.92-.7,2.8-1.23.98-.3,1.89-.75,2.81-1.18,1.22-.57,2.42-1.2,3.63-1.8.25.18.5.36.75.54,0,.14-.09.23-.18.33-.28.29-.57.57-.8.88-.68.9-1.49,1.68-2.34,2.4-3.25,2.79-6.91,4.8-11.12,5.72-.94.2-1.72.63-2.22,1.49-.17.28-.36.55-.56.81-.86,1.15-1.71,2.32-2.92,3.14-.76.25-1.52.53-2.29.73-2.33.62-4.68,1.09-7.11,1.08-.07,0-.14.04-.2.05l-1.62-.05c-.23.03-.42.13-.61.28-.95.76-1.84,1.59-2.85,2.27-.6.41-1.27.72-1.8,1.29,1.23.37,2.45.6,3.7.38-.12.16-.23.31-.34.45-.36.42-.8.78-.95,1.35-.13.15-.29.1-.43.05-1.12-.4-2.23-.82-3.34-1.26-.87-.35-1.73-.75-2.64-1.03h0c-.06-.03-.12-.06-.18-.09h0c-.06-.03-.12-.06-.18-.09h0c-.06-.03-.12-.06-.18-.09h0c-.07-.02-.14-.05-.21-.08-.11.02-.19-.04-.29-.08-1.3-.58-2.6-1.15-3.89-1.74-.7-.32-1.44-.56-2.11-.96,0-.03-.01-.07,0-.08.56-.53,1.01-1.21,1.88-1.29.13-.01.26-.02.36-.11.08-.07.24-.09.23-.23,0-.15-.15-.14-.26-.19-1.02-.43-1.98-.98-2.89-1.62-.49-.34-.98-.69-1.44-1.26,2.1.76,4.07,1.55,6.33.96-1.23-.35-2.48-.38-3.51-1.1.26-.18.52.06.79.01.92-.17,1.74-.56,2.51-1.08.11-.08.25-.17.19-.3-.07-.17-.25-.08-.38-.04-.28.08-.55.16-.82.24-.11.04-.22.09-.31-.03.24-.18.47-.37.71-.55.19-.15.19-.28,0-.45-.22-.21-.49-.34-.72-.53-1.84-1.52-3.7-3.03-5.51-4.58-.74-.63-1.51-1.23-2.14-1.99.14,0,.28-.02.42-.03h0c-.02.13.05.19.18.17.11.06.21.13.32.19.05.07.1.14.16.2,1.86,1.51,3.81,2.91,5.84,4.18.07.04.15.12.23.07.11-.06.06-.18.05-.27-.11-.56-.23-1.12-.35-1.68,0-.05-.01-.1-.02-.15.05-.1,0-.19-.05-.28,0-.25-.01-.5-.02-.75.01-.6.02-1.21.03-1.81.08-.39.15-.78.24-1.17.03-.14.06-.32.23-.32.19,0,.17.21.2.33.11.38.21.77.41,1.12-.04-.59.19-1.14.2-1.71.06-.26.14-.52.19-.79.05-.29.15-.43.48-.32.23.08.48.07.72-.02.27.03.5-.05.82-.29-.95-.08-1.69-.52-2.47-.83h0s.07-.08.11-.11c.2.02.4.05.6.07,1.34.41,3.31-.12,3.92-1.08-1.74.58-2.79-.53-3.98-1.47.11-.05.14-.08.16-.07.1.03.19.06.28.09.73.31,1.47.44,2.26.34.77-.1,1.47-.36,2.16-.69.5-.24.79-.66,1.04-1.13.54-.29,1.13-.48,1.68-.96-1.41.07-2.69-.05-3.92-.51.06-.08.14-.11.23-.09.72.17,1.44.21,2.17.08.58-.1,1.15-.22,1.66-.55.1-.07.32-.1.22-.3-.09-.18-.25-.05-.38-.03-.22.02-.49.22-.6-.16.13-.07.26-.13.38-.2,1.08-.63,1.92-1.48,2.39-2.66.23-.18.26-.47.36-.71.39-.9.37-.89-.48-1.34-.6-.32-1.18-.65-1.73-1.08.5-.22.99-.07,1.48-.18-.19-.07-.38-.15-.57-.22.37-.06.74-.09,1.15-.27-.64-.26-1.25-.1-1.83-.19.34-.31.75-.52,1.14-.75.06.29.22.08.3.04,1-.47,1.98-.97,2.99-1.42,1.21-.54,2.34-1.2,3.44-1.93,1.45-.96,2.42-2.22,2.62-3.99.04-.33.19-.7-.11-1.01.03-.28.05-.56.08-.88.29.35.27.78.42,1.14.03.04.06.07.09.11,0,.04.01.08.02.12-.03.09-.02.18.08.23,0,0,0,.03,0,.03-.02.11-.05.23.09.3ZM82.71,69.6c.06-.02.12-.05.17-.07.07,0,.14,0,.18-.08h.03s.03-.01.03-.01l.11-.06c.5-.26,1.03-.44,1.57-.6,1.7-.5,3.43-.81,5.22-.64.71.07,1.41.3,2.13.26.1,0,.26.04.28-.12.02-.12-.1-.16-.19-.21-2.13-1.31-4.43-1.55-6.84-1.08-2.24.44-4,1.68-5.46,3.37-.27.32-.6.63-.65,1.09-.08.08-.16.16-.26.23-.09.07-.15.13-.09.25.05.09.12.1.22.07.53-.13,1.08-.27,1.47-.64.54-.51,1.13-.94,1.77-1.32.17-.1.29-.22.3-.43ZM76.77,54.3c0,.32.14.64.35.86.39.39.6.38.93-.07.25-.34.49-.67.71-1.03.25-.4.48-.82.57-1.29.09-.5-.24-.79-.7-.59-.83.35-1.4.98-1.77,1.79-.05.12-.07.25-.09.32ZM103.36,59.3c-.03-1.05.06-2.03.25-3,.04-.21.07-.42.08-.63,0-.21-.1-.26-.27-.14-1.48.98-1.64,2.53-.06,3.78ZM76.89,75.51c-.73-.04-1.47-.06-2.2-.11-.57-.04-.98.27-1.36.62-.17.16-.16.3.07.38.13.05.27.11.41.12,1.16.12,2.13-.36,3.08-1.01ZM75.03,57.12c0,.13,0,.17,0,.22.03.17.03.41.18.46.19.06.26-.17.35-.31.24-.41.47-.82.7-1.24.11-.19.09-.38,0-.58-.09-.17-.19-.25-.36-.09-.49.44-.8.97-.86,1.55Z"/>
  <path class="st4" d="M61.11,79.36c.66.4,1.41.64,2.11.96,1.29.6,2.59,1.16,3.89,1.74.09.04.18.1.29.08.07.03.14.06.21.09,0,0,0,0,0,0,.04.07.11.08.18.09,0,0,0,0,0,0,.06.03.12.06.18.09,0,0,0,0,0,0,.06.03.12.06.18.09,0,0,0,0,0,0,.1.06.19.12.3.17,3.46,1.65,7.05,3.01,10.55,4.58,1.04.47,2,1.06,2.97,1.65.06.04.13.07.1.16-.12,0-.24,0-.35,0-.06-.23-.26-.3-.42-.22-.24.1-.49.22-.63.46-.58.5-1.14,1.01-1.73,1.49-1.9,1.54-3.9,2.95-5.86,4.4-1.42,1.06-2.84,2.13-4.28,3.16-.53.38-.98.87-1.59,1.14,0-.03,0-.07,0-.1.32-.73.61-1.48,1.09-2.14.22-.3.38-.64.49-1,.14-.45,0-.63-.45-.63-.46,0-.92-.04-1.38.01-.61.07-.98-.24-1.3-.68-.11-.15-.21-.31-.31-.46-.36-.54-.58-.61-1.2-.4-.82.28-1.52.8-2.31,1.15-.16.07-.34.2-.49.1-.32-.21-.62-.14-.95-.07-.12.03-.26.03-.38-.05-.24-.18-.48-.12-.74-.06-1.24.29-2.5.49-3.78.46-.88-.02-1.75,0-2.63,0-.16,0-.31,0-.47.05-.89.33-1.83.46-2.76.62-.55.09-1.13.23-1.66-.14-.14-.09-.32-.11-.5-.1-.12.01-.25,0-.29.14-.04.15.12.17.19.24.07.07.37.02.19.2-.25.24.1.18.1.28-.07.15-.41.03-.33.33-.76-.32-1.5-.69-2.21-1.11-.5-.29-1.07-.46-1.52-.85.34-.02.58.23.87.34.12.05.25.14.36.04.12-.11.08-.27.04-.41-.05-.2-.19-.36-.36-.47-.27-.16-.54-.33-.83-.45-1.06-.43-2.13-.86-3.2-1.26-.43-.16-.84-.41-1.35-.46.06.17.11.3.16.43-.98-.45-1.97-.87-2.93-1.36-2.81-1.44-5.62-2.87-8.39-4.39-.49-.27-.97-.55-1.47-.81-.48-.26-1.02-.43-1.45-.75-.39-.29-1.06-.28-1.13-.95,0,0-.03-.02-.04-.02-.45.07-.67-.35-1.03-.47,0-.05.01-.1.02-.15.5.07.98.29,1.55.1-.17-.14-.34-.15-.49-.21-.3-.12-.66,0-.94-.25-.3-.27-.61-.52-.93-.76-.83-.61-1.64-1.27-2.7-1.45-.35-.06-.66-.17-.94-.38-.46-.35-.92-.68-1.39-1.01-.48-.34-.49-.86-.02-1.23.1-.08.23-.13.21-.29-.17-.08-.3.04-.45.08-.25.06-.49.16-.75.21-.48.09-.62-.04-.58-.52.01-.17,0-.35,0-.52,0-.73-.15-.94-.86-.93-2.05.03-4.1-.15-6.15-.08-.32-.13-.6-.34-.87-.55.1-.27.35-.37.56-.5,2.66-1.63,5.39-3.13,8.07-4.71,1.66-.98,3.32-1.98,4.96-3,1.81-1.12,3.68-2.12,5.52-3.18.16-.09.35-.16.31-.4.72-.55,1.44-.57,2.27-.14,1.46.75,2.87,1.6,4.35,2.31,1.1.53,2.18,1.09,3.26,1.64,3.46,1.75,6.99,3.35,10.5,4.97.8.37,1.57.79,2.4,1.07,1.23.7,2.57,1.17,3.82,1.83.96.51,1.98.93,3,1.32,1.52.58,3.01,1.21,4.51,1.83ZM77.25,89.08c.12.19.31.29.52.35.47.47.64.49,1.13.11.13-.1.25-.19.37-.29.2-.15.17-.26-.06-.36-1.32-.58-2.63-1.16-4.01-1.57-.38-.11-.76-.23-1.14-.34-.01.04-.03.07-.04.11.67.41,1.3.88,2.01,1.22.27.28.58.49.95.6.04.13.15.15.26.18ZM43.85,80.92c0,.08.02.15.1.18.61.72,1.31,1.36,2.02,1.98,1.05.92,2.11,1.84,3.39,2.4,1.84.81,3.76,1.09,5.74.47.75-.23,1.01-.42.74-1.48.03-.19-.02-.37-.09-.54-.7-1.79-1.57-3.44-3.38-4.38.13-.26-.14-.27-.24-.33-1.58-.93-3.31-1.32-5.12-1.39-1.44-.05-2.84.26-4.22.63-.34.09-.41.28-.28.57.23.54.52,1.05.91,1.5.12.14.16.39.42.39h0ZM60,88.89c.02-.18-.04-.34-.11-.5-.24-.51-.59-.94-.93-1.39-.34-.46-.81-.65-1.33-.69-.72-.06-1.43,0-2.14.16-.6.14-.65.23-.5.84.65,2.67,2.8,2.86,4.64,2.15.25-.1.41-.27.36-.56ZM30.64,74.89c.22.01.53,0,.83-.13.22-.09.33-.23.28-.46-.14-.65-.3-1.29-.77-1.79-.72-.75-1.68-.87-2.63-.97-.24-.03-.4.11-.35.45.08.51.22,1,.42,1.48.42,1.01,1.04,1.42,2.22,1.42Z"/>
  <path class="st6" d="M99.13,34.88c3.5,1.18,7,2.36,10.49,3.55,2.18.74,4.35,1.5,6.52,2.25,2.07.71,4.13,1.42,6.2,2.13.09.03.18.08.27.12-1.63,2.01-3.05,4.49-2.93,5.17.05-.06.09-.09.11-.14.63-1.11,1.37-2.14,2.11-3.18.43-.61.88-1.2,1.24-1.85,2.01-1.74,4.41-2.78,6.83-3.79.02.19-.05.37-.12.54-.22.62-.45,1.24-.68,1.86-.71,1.96-1.49,3.88-2.53,5.7-.98,1.71-2.37,2.88-4.25,3.5-.56.18-1.15.22-1.68.48-.6-.14-1.28.07-1.8-.42-.06-.06-.19-.07-.29-.08-.73-.06-1.45-.16-2.18-.17-1.31-.01-2.59.2-3.84.58.03-.98-.24-1.9-.53-2.81-.29-.9-.89-1.51-1.8-1.81-.42-.14-.83-.31-1.22-.52-.78-.42-1.53-.3-2.24.12-.94.57-1.82,1.23-2.46,2.16-.05.08-.13.1-.22.11-.02-.05-.06-.1-.07-.16-.22-1.46-.62-2.87-1.03-4.28-.83-2.79-1.97-5.45-3.4-7.98-.16-.36-.33-.72-.49-1.08Z"/>
  <path class="st4" d="M43.68,39.06c.88-.33,1.75-.68,2.64-1,2.61-.93,5.22-1.84,7.83-2.76.2-.07.4-.16.6-.24.37,1.43.75,2.84,1.45,4.16.49.91,1.17,1.55,2.15,1.93.88.34,1.57-.14,2.32-.37.12-.04.14-.2.19-.32.16-.39.18-.81.23-1.22.1-.96.05-1.93-.29-2.83-.39-1.01-1.26-1.43-2.24-1.7-.5-.14-1.04-.17-1.5-.45.57-.37,1.24-.52,1.86-.76,1.77-.68,3.5-1.46,5.28-2.1.84-.3,1.51-.07,2.14.46.98.84,1.93,1.72,2.83,2.64,1.13,1.14,2.3,2.25,3.47,3.35.03.03.04.07.06.11-.02.19.12.28.23.39.44.44.87.88,1.31,1.31.91.9,1.8,1.81,2.75,2.67.33.29.29.44-.11.56-.88.25-1.73.62-2.6.89-2.08.65-4.15,1.3-6.24,1.93-.35.11-.67.21-.81.58-.09-.01-.17-.02-.26-.03-1.31-.24-2.59-.6-3.91-.81-.52-.08-1.07-.16-1.58-.33-.58-.23-1.2-.28-1.8-.4-.31-.06-.54-.15-.69-.48-.3-.67-.71-1.28-1.13-1.88-.08-.12-.14-.28-.35-.27,0,.47.25.86.35,1.41-1.7-1.84-3.75-2.84-6.01-3.45,2.28,1.11,4.56,2.23,6.26,4.33-.29,0-.46.02-.63,0-1.11-.15-2.23-.17-3.35-.23-.15,0-.32-.05-.46.07-.78-.03-1.55-.07-2.33-.1.04-.25-.13-.29-.31-.32-.17-.03-.34-.06-.51-.08-.22-.03-.49,0-.24-.36.08-.11-.05-.2-.17-.25-.11-.04-.21-.08-.32-.13-.09-.04-.19-.09-.16-.22.02-.09.09-.16.18-.16.45,0,.77-.28,1.1-.53.15-.11.29-.22.51-.13.9.37,1.83.68,2.68,1.17.42.24.56.16.62-.34.15-.02.28.05.4.12.1.06.21.22.33.06.1-.13.01-.28-.08-.39-.07-.08-.18-.14-.27-.21-.64-.43-1.3-.82-2.01-1.11-.3-.12-.57-.44-.96-.28-.52-.27-.9-.7-1.32-1.13-.11.25.13.39.12.58l-.03.03c-.11-.03-.22-.04-.33-.08-1.72-.65-3.5-1.03-5.34-1.16-.52-.04-1.06.04-1.57-.12Z"/>
  <path class="st1" d="M27.37,95.43c.1-.02.15-.08.15-.18.01-1.33.36-2.64.27-3.98-.05-.63.09-1.26.09-1.89,0-.23.09-.28.3-.18,1.24.61,2.49,1.18,3.67,1.9.49.3.78.84,1.13,1.29.75.94,1.51,1.87,2.33,2.75,1.1,1.21,2.2,2.42,3.29,3.64.6.68,1.38,1.1,2.16,1.54,1.44.81,2.92,1.56,4.4,2.28.42.21.86.4,1.3.56.43.15.54.04.61-.42.16-1.1.04-2.21.08-3.31,0-.28,0-.28.22-.23.03,0,.06,0,.08.01.02,0,.04.02.06.04.02.02.05.05.07.07,0,0,0,0,0,0,.64.56,1.46.85,2.13,1.36.31.23.59.32.94.19.14.02.27.07.39.16,0,.2.17.26.3.32,1.35.68,2.71,1.35,4.07,2.02.35-.01.37.35.56.52,1.14,1.02,2.36,1.95,3.56,2.91,1.19.96,2.37,1.94,3.57,2.88.88.69,1.69,1.46,2.52,2.19.1.09.27.17.24.33-.03.19-.23.14-.36.18-.29.09-.6.14-.85.38.43-.05.86-.07,1.28-.16,1.37-.31,2.74-.62,4.05-1.14.32-.13.45-.33.49-.63.05-.38.08-.77.09-1.15.05-1.2.14-2.41.07-3.74.52.53,1.08.85,1.06,1.65-.02,1.13-.04,2.27.02,3.4.02.4-.28.83-.48,1.23-.33.65-.46,1.35-.57,2.06-.05.29.18.47.5.4,1.13-.25,2.26-.49,3.32-.97.37-.17.76-.32,1.09-.59.35-.27.85-.24,1.21-.53.06-.05.14-.03.19.03.29.33.55.1.77-.07.43-.34.76-.78,1.09-1.21.21-.27.46-.41.8-.44-.26.64-.78,1.09-1.22,1.59-1.02,1.14-2.22,2.08-3.42,3.01-.68.52-1.29,1.12-2.08,1.49-.68.32-1.3.37-2.01.01-.91-.46-1.77-.99-2.63-1.54-1.15-.73-2.2-1.6-3.45-2.17-.17-.08-.34-.19-.53-.14-.51.11-1.02.13-1.53.19-1.46.17-2.94.22-4.41.31-.87.06-1.76.04-2.63,0-.79-.03-1.54-.17-2.23-.66-1.62-1.16-3-2.58-4.46-3.91-1.11-1.02-2.14-2.12-3.24-3.16-1.72-1.63-3.36-3.35-5.09-4.98-.2-.19-.41-.35-.66-.47-1.74-.85-3.47-1.74-5.17-2.68-1.47-.81-2.95-1.61-4.42-2.41-.1-.06-.23-.18-.35-.05-.09.09-.05.22-.02.33.12.41.04.83.06,1.24,0,.14-.07.27-.2.31-.46.15-.79.53-1.24.68-.47.15-.63.48-.63.95,0,2.43,0,4.87,0,7.3,0,.49-.16.97-.06,1.46-.23-.07-.47-.13-.7-.2.02-1.55.05-3.1.07-4.65,0-.23-.01-.45.22-.61.16-.11.14-.3.14-.48.01-1.43.05-2.87-.09-4.3-.05-.49-.31-.97-.26-1.49.01-.14.01-.29.02-.43ZM56.71,113.32c1.04,0,1.92.03,2.79-.09.72-.1,1.48-.09,2.11-.57.32-.25.37-.33.02-.55-1.22-.75-2.43-1.53-3.69-2.22-1.6-.87-3.25-1.67-4.87-2.49-1.86-.94-3.72-1.88-5.58-2.84-.27-.14-.37-.11-.41.2-.09.65-.03,1.29-.04,1.94,0,.13.1.2.17.29.47.6,1.06,1.09,1.6,1.62,1.36,1.32,2.76,2.59,4.2,3.83.5.43,1.04.76,1.75.84.71.07,1.41,0,1.94.06Z"/>
  <path class="st4" d="M14.04,50.13c.53-.36,1.17-.48,1.76-.68,2.65-.94,5.29-1.93,7.96-2.83,2.01-.68,3.99-1.47,5.97-2.22,1.97-.74,3.94-1.5,5.92-2.23.34-.13.4-.24.17-.54-.24-.32-.48-.65-.57-1.05.12,0,.21.06.29.16.49.64.99,1.26,1.47,1.9.11.15.27.29.23.55-.31-.14-.51-.36-.74-.55-.08-.07-.19-.18-.3-.07-.09.09.03.18.05.28,0,.07-.11.15-.02.22.06.05.13.03.17-.04.15,0,.27.08.39.16.93.54,1.44,1.41,1.8,2.38.07.18.18.37.11.68-.33-.49-.59-.9-.88-1.28-.35-.46-.62-.99-1.11-1.34-.19-.02-.14-.28-.32-.31-.06.08,0,.14.03.2.43.81.33,1.55-.18,2.3-1.06,1.56-2.22,3.04-3.38,4.52-.48.62-1,1.22-1.37,1.92-.04.04-.07.09-.11.13-1.46,2.08-1.85,4.48-2.07,6.93-.48-.75-1.15-1.16-2.07-1.11-.39.02-.6.33-.46.68.09.21.19.42.33.6.59.73,1.2,1.45,1.81,2.16.13.15.2.41.48.36.01.12.02.24.04.37-.14-.01-.25-.08-.34-.17-.71-.72-1.46-1.41-2.13-2.17-.69-.79-1.44-1.52-2.24-2.19-.27-.23-.54-.47-.91-.55-.12-.03-.23-.04-.32.06-.09.11-.09.24,0,.36.17.23.3.48.5.69.94.99,1.87,1.98,2.8,2.97.08.08.25.15.08.31-1.25-.98-2.43-2.05-3.6-3.13-.67-.62-1.35-1.24-2.04-1.85-1.26-1.12-2.6-2.16-3.83-3.32-.78-.74-1.61-1.42-2.39-2.17-.35-.34-.82-.59-1.02-1.08ZM19.58,49.64c.12.13.21.11.29.11.63.02,1.02.72.69,1.27-.12.2-.08.3.06.43,1.48,1.4,3.24,2.06,5.26,1.9.87-.07,1.72-.32,2.37-1,.35-.37.35-.52.06-.93-.32-.45-.83-.72-1.15-1.15-.35-.46-.77-.86-1.19-1.24-.48-.43-1.04-.67-1.72-.68-1.67-.02-3.15.63-4.66,1.28Z"/>
  <path class="st2" d="M36.25,42.84c-.02-.09-.14-.19-.05-.28.11-.11.22,0,.3.07.23.19.43.41.74.55.04-.25-.12-.4-.23-.55-.48-.64-.98-1.27-1.47-1.9-.08-.1-.17-.15-.29-.16-.11-.19-.25-.38-.18-.68.51.45.98.89,1.64.99-.42-.41-1.02-.59-1.48-1.13.55.12,1,.02,1.44.14.31.09.32.07.25.39-.02.11.06.11.11.14.91.47,1.86.56,2.87.39,1.69-.28,3.38-.58,5.09-.74.86-.08,1.71-.1,2.57-.02.12.01.15-.05.16-.14.13.03.25.05.38.08,1.06.28,2.04.78,3.08,1.13.71.24,1.35.63,2.08.8h.04c.07.03.14.06.21.1.36.32.84.47,1.22.75-.06.5-.2.58-.62.34-.85-.48-1.78-.79-2.68-1.17-.22-.09-.36.02-.51.13-.33.25-.65.53-1.1.53-.09,0-.16.06-.18.16-.03.13.07.18.16.22.1.05.21.1.32.13.12.04.24.14.17.25-.25.36.02.33.24.36.17.02.34.05.51.08.17.04.35.07.31.32-.62.01-1.23.02-1.85.04-1.41.04-2.81.09-4.19.43-.85.21-1.07.55-1,1.43.11,1.49.41,2.95.79,4.39.12.44.32.86.31,1.33-.05.03-.1.06-.14.1-.98,1.08-2.04,2.07-3.11,3.05-.09.08-.15.22-.34.17.02-1.33.23-2.63.6-3.92-1.21,1.63-2.77,2.9-4.16,4.33-.34.35-.35.35-.57-.11-.44-.9-.71-1.85-.94-2.82-.07-.28-.14-.56-.23-.92-.27.45-.49.81-.75,1.25-.03-.28-.04-.46-.07-.69-.55.53-.89,1.15-1.34,1.8-.01-.93.14-1.74.35-2.65-1.46,1.32-2.25,2.92-2.91,4.69-.25-.61-.5-1.11-.59-1.67,0-.42,0-.84.01-1.25.12-.24.25-.49.37-.73.32-.44.64-.88.96-1.32,1.2-1.65,2.55-3.19,3.7-4.87.48-.71.91-1.41.5-2.3-.03-.08-.03-.17-.04-.25.49.35.76.88,1.11,1.34.29.38.55.8.88,1.28.07-.32-.04-.5-.11-.68-.36-.97-.87-1.84-1.8-2.38-.12-.07-.24-.16-.39-.16-.05-.06-.1-.12-.15-.18Z"/>
  <path class="st6" d="M143.87,49.83c-.44.24-.7.67-1.03,1.02-.66.71-1.26,1.48-1.9,2.2-.68.76-1.38,1.49-2.07,2.23-.38-.05-.58.26-.84.45-.16.12-.32.27-.53.23-.78-.12-1.53.11-2.27.24-1.77.32-3.51.76-5.19,1.41.08-.43.18-.86.22-1.3.09-1.04.15-2.07-.3-3.06-.21-.02-.11-.27-.25-.35-.67,1.23-1.58,1.73-2.89,1.56.34-.24.77-.14,1.11-.35-.26-.11-.52.05-.73-.12-.06-.11-.17-.08-.26-.1h0c-.97-.45-1.94-.93-2.92-1.38-.31-.14-.59-.36-.95-.36.03-.23.21-.16.33-.16.87-.02,1.69-.28,2.51-.53,1.64-.49,2.96-1.48,4.08-2.75.77-.87,1.39-1.84,1.79-2.94,1.74.37,3.41.97,5.1,1.49,2.11.65,4.19,1.39,6.28,2.12.27.09.55.16.71.44ZM135.92,50.34c0-.67,0-.7-.65-.67-.95.05-1.8.44-2.6.93-.8.49-1.46,1.09-1.71,2.06-.19.75.08,1.17.84,1.24.36.03.71-.04,1.07-.08,1.9-.24,2.93-1.84,3.05-3.47Z"/>
  <path class="st1" d="M43.58,95.27c.44.39,1.01.56,1.52.85.71.41,1.45.78,2.21,1.11,1.58.75,3.11,1.63,4.66,2.44,2.81,1.47,5.62,2.95,8.43,4.43.25.13.49.31.8.23.14.24.08.5.09.75.01.54,0,.53.47.29.24-.13.44-.38.76-.34-.26.32-.62.49-.94.72-.21.15-.44.18-.69.08-2-1.05-4-2.08-5.99-3.14-3.07-1.65-6.22-3.12-9.29-4.75-3.21-1.69-6.36-3.5-9.61-5.12-.78-.39-1.58-.77-2.34-1.19-2.01-1.13-4.04-2.24-6.08-3.32-.91-.48-1.86-.88-2.8-1.31-.08-.04-.19,0-.29.01,0,0,0,0,0,0,0-.3-.23-.17-.38-.19-.09.03-.17-.03-.24-.07-4.68-2.37-9.36-4.74-13.95-7.29-.49-.27-.96-.58-1.42-.9-.7-.49-1.04-1.17-1.01-2.03,0-.07.05-.13.07-.19.27.21.55.42.87.55.17.14.35.28.52.42.81.57,1.69,1.05,2.55,1.52.72.4,1.39.94,2.27.98.12,0,.14.11.18.2.17.42.6.57,1.02.38.38-.17.76-.33,1.14-.49,0,.05,0,.1,0,.15-.26.06-.46.21-.67.36-.4.3-.41.3.02.54,1.68.93,3.41,1.77,5.15,2.58.71.33,1.4.75,2.22.74.36.13.58.54,1.03.47.01,0,.04,0,.04.02.07.67.74.66,1.13.95.43.32.97.5,1.45.75.49.26.98.54,1.47.81,2.77,1.52,5.58,2.96,8.39,4.39.96.49,1.95.91,2.93,1.36.78.47,1.6.88,2.42,1.28.11.06.21.11.34.09h0s.06.07.09.11c.05.02.1.04.15.06.05.06.12.09.2.09h0c.12.18.3.26.52.26h0c.03.08.09.1.17.09h0s.06.06.09.09h0c.03.08.1.09.17.09h0c.03.08.1.09.17.09h0Z"/>
  <path class="st3" d="M44.96,26.18c.69,1.36,1.37,2.71,1.76,4.2.44,1.69.37,3.33-.38,4.92-.36.76-.75,1.49-1.26,2.15-.42.53-.7.6-1.3.3-.62-.31-1.19-.69-1.74-1.11-1.01-.77-1.29-1.85-1.34-3.04.13-.08.12-.21.15-.34.3-1.29.75-2.52,1.53-3.6.59-.82,1.18-1.65,1.79-2.45.26-.34.43-.76.8-1.03Z"/>
  <path class="st3" d="M27.27,107.39c.23.07.47.13.7.2.51.14.92.45,1.3.79.71.63,1.22,1.43,1.77,2.19l.18.42c0,.14,0,.28,0,.43-.12.09-.23.18-.35.27-.86.69-1.85,1.02-2.94,1.12-1.97.18-3.72-.26-5.25-1.57-1.03-.88-2.07-1.74-3.05-2.67-.15-.15-.28-.29.03-.39,2.32-.77,4.7-1.09,7.14-.79.07.1.16.09.25.03.06,0,.13-.01.19-.02ZM24.07,111.44c-.08-.24-.24-.41-.5-.45-.14-.02-.29.05-.27.2.04.28.27.38.53.42.12.02.23,0,.25-.17Z"/>
  <path class="st6" d="M16.89,91.46c-.43-.43-.72-.96-1.02-1.48-.21-.36-.13-.59.25-.79.69-.36.93-.93.72-1.6-.24-.81-1.58-1.14-2.18-.53q-.12.12.08.51c-.69.15-1.37.08-2.09,0,.11-.2.3-.28.46-.36,2.1-1.04,4.22-1.22,6.37-.11.89.46,1.81.88,2.44,1.71,0,.18.04.33.27.33,0,0,0,0,0,0-.02.19.06.33.16.48.34.52.63,1.06.87,1.63.24.56.49,1.13.52,1.76.01.29-.07.42-.4.46-.73.09-1.45.09-2.18-.01-1.4-.2-2.71-.61-3.76-1.63-.09-.09-.17-.2-.33-.17,0,0,.01,0,.01,0-.03-.03-.06-.06-.09-.09,0,0,0,0,0,0-.03-.03-.06-.07-.1-.1Z"/>
  <path class="st1" d="M131.77,45.78c-.39,1.1-1.02,2.07-1.79,2.94-1.12,1.27-2.44,2.26-4.08,2.75-.82.25-1.64.51-2.51.53-.13,0-.31-.07-.33.16-.39-.17-.78-.33-1.16-.51-.38-.17-.84-.15-1.18-.44.53-.26,1.13-.29,1.68-.48,1.87-.62,3.27-1.78,4.25-3.5,1.03-1.82,1.82-3.74,2.53-5.7.23-.62.46-1.24.68-1.86.06-.17.13-.35.12-.54.27-.16.4-.05.43.23.03.32-.05.63-.13.93-.37,1.34-.73,2.69-1.24,3.98-.14.36-.06.5.3.6.68.19,1.34.43,2,.65.16.05.33.1.44.24Z"/>
  <path class="st3" d="M96.37,30.58s0,.02,0,.02c0,.15.02.27.19.3,0,0,0,0,0,0-.03.15.02.24.18.27,0,0,0,0,0,0,.13.49.41.88.78,1.22,0,0,0,0,0,0-.03.12.03.23.09.32.38.57.7,1.17,1.06,1.75.35.56.52,1.2.9,1.74.01.07,0,.15.04.21,1.11,2.34,2.01,4.76,2.7,7.26.4,1.45.61,2.93.88,4.44-.26-.07-.41-.21-.58-.35-.32-.27-.6-.58-.94-.82-.72-.51-1.45-.99-2.22-1.4-.18-.09-.26-.2-.22-.41.2-1.04.16-2.09.05-3.13-.26-2.56-.87-5.05-1.78-7.46-.59-1.58-1.37-3.07-2.25-4.51-.56-.92-1.16-1.82-1.92-2.59-.44-.44-.92-.85-1.62-.73-.22-.49.17-.45.44-.52,0,0,0,0,0,0,.06.12.17.1.27.09,0,0,0,0,0,0,.03.09.1.1.18.09,0,0-.01,0-.01,0,.03.09.1.11.18.1,0,0,0,0,0,0,.03.08.09.1.17.1,0,0,0,0,0,0,.03.03.07.05.1.08,0,0,0,0,0,0,.03.03.07.06.1.09,0,0-.01-.01-.01-.01.02.09.09.11.16.11,0,0,0,0,0,0,.02.17.1.25.27.25,0,0,0,0,0,0,.03.03.06.06.09.09,0,0,0,0,0,0,.03.03.06.06.09.09,0,0,0,0,0,0,.03.03.06.06.09.09,0,0,0,0,0,0,0,.17.09.26.26.27,0,0,0,0,0,0,0,.08.02.15.12.16,0,0-.01,0-.01,0,0,.06.03.09.09.1,0,0-.01,0-.01,0,0,.06.04.09.09.1,0,0-.01,0-.01,0,.03.03.06.07.09.1,0,0,0-.01,0-.01-.01.13.05.19.17.19.02.03.05.06.07.09,0,.08.02.14.11.16,0,0,0-.01,0-.01-.01.2.09.3.27.35,0,0-.01,0-.01,0,.03.03.06.07.09.1,0,0,0-.01,0-.01-.01.14.04.24.19.26,0,0-.01,0-.01,0,0,.06.03.09.09.1,0,0-.01,0-.01,0,.03.03.06.07.09.1,0,0,0,0,0,0,0,.08.01.15.11.17,0,0,0-.01,0-.01-.04.21.08.3.26.36,0,0-.01,0-.01,0,.03.03.06.07.09.1,0,0,0,0,0,0-.02.14.04.23.18.26,0,0,0,0,0,0-.02.14.03.24.18.27,0,0,0,0,0,0-.03.13.04.19.16.2Z"/>
  <path class="st6" d="M57.05,34.27c.46.28,1,.31,1.5.45.97.27,1.85.69,2.24,1.7.35.91.4,1.87.29,2.83-.04.41-.07.83-.23,1.22-.05.12-.07.29-.19.32-.75.23-1.45.71-2.32.37-.98-.38-1.66-1.02-2.15-1.93-.7-1.31-1.08-2.73-1.45-4.16-.01-.21-.03-.43-.03-.64,0-.47.1-.57.56-.46.59.14,1.16.39,1.78.3Z"/>
  <path class="st6" d="M67.23,46.31c.14-.37.46-.48.81-.58,2.08-.63,4.16-1.28,6.24-1.93.87-.28,1.72-.64,2.6-.89.4-.12.44-.26.11-.56-.95-.86-1.84-1.77-2.75-2.67-.44-.44-.87-.87-1.31-1.31-.11-.11-.25-.21-.23-.39.91.77,1.83,1.53,2.73,2.31,1.04.91,2.06,1.84,3,2.85.13.14.24.2.41.1,1.53-.93,3.01-1.92,3.86-3.59.19-.36.26-.76.4-1.14.3.31.15.68.11,1.01-.2,1.76-1.18,3.02-2.62,3.99-1.1.73-2.24,1.39-3.44,1.93-1.01.45-1.99.96-2.99,1.42-.08.04-.24.25-.3-.04,1.01-.75,2.05-1.44,3.11-2.12.51-.33,1.07-.59,1.54-.99.01-.01.02-.03.03-.04-.01.01-.03.02-.04.03-.17-.02-.3.07-.44.14-.56.29-1.12.57-1.68.88-1.51.83-2.99,1.7-4.45,2.61-1.58-.27-3.13-.64-4.68-1.02Z"/>
  <path class="st1" d="M14.04,50.13c.21.48.67.74,1.02,1.08.77.74,1.61,1.43,2.39,2.17,1.23,1.16,2.57,2.2,3.83,3.32.68.61,1.36,1.23,2.04,1.85,1.17,1.08,2.34,2.15,3.6,3.13.25.32.66.49.87.86-.15,0-.34,0-.15.23.13.15.29.28.42.43.11.12.36.22.27.39-.09.17-.34.16-.55.17-.14,0-.25-.04-.36-.13-.26-.2-.58-.31-.81-.56-.1-.11-.22-.13-.33,0-1.77-1.4-3.49-2.85-5.21-4.31-2.5-2.12-4.91-4.33-7.29-6.59-.59-.56-.46-1.58.25-2.04ZM27.09,62.19s-.02-.01-.03-.02c.01,0,.02.01.03.02.02.17.11.27.33.32-.05-.21-.15-.3-.32-.32Z"/>
  <path class="st1" d="M113.45,25.22c.17,0,.25.12.32.24.72,1.14,1.15,2.39,1.34,3.72-.01.08,0,.15.09.18.1.22.08.45.08.68-.12.2-.11.4-.02.6-.02.12-.04.23-.06.35-.01,0-.03.01-.03.02,0,.02.01.04.02.06-.53,2.48-2.16,4.05-4.33,5.14-.76.38-1.34-.03-1.78-.7-.59-.89-.71-1.92-.55-2.98.14,0,.25-.07.36-.13,1.84-.95,3.67-1.9,5.51-2.83.26-.13.3-.28.21-.55-.4-1.27-.78-2.55-1.17-3.82Z"/>
  <path class="st5" d="M92.14,26.16c-.27.07-.66.03-.44.52-.25.35-.46.73-.63,1.12-.67,1.55-1.31,3.12-2.08,4.63-.84,1.65-1.53,3.37-2.25,5.07-.06.15-.18.32-.11.49.15.35,0,.62-.18.88-.24.37-.37.78-.51,1.18-.08.24.09.42.27.47.23.06.15-.2.18-.3.25-.93.77-1.69,1.43-2.36.08-.08.16-.25.31-.17.14.07.26.18.28.36,0,.14.02.29-.01.43-.16.87-.33,1.74-.57,2.59-.17.6-.08.71.55.79.07,0,.14.02.21.03-.3.34-.74.32-1.12.44-1.32.42-2.7.68-3.81,1.61-.09.08-.21.15-.39.13.13-.31.39-.52.5-.83.31-.86.16-1.74.14-2.61,0-.25-.04-.51-.04-.77.14.2.15.43.22.65.06.62.21,1.23.35,1.97.61-1.64,1.18-3.16,1.75-4.68.36-.65.57-1.36.85-2.04.48-1.16.97-2.32,1.46-3.48.5-1.02.97-2.05,1.35-3.16-.25.02-.28.24-.44.21.39-.84.78-1.67,1.26-2.45.42-.67.89-.9,1.48-.74Z"/>
  <path class="st6" d="M113.45,25.22c.39,1.27.76,2.55,1.17,3.82.09.27.05.42-.21.55-1.84.94-3.67,1.89-5.51,2.83-.11.06-.22.14-.36.13.01-.79.28-1.49.73-2.12.26-.36.49-.75.66-1.16.16-.39.4-.62.85-.74.86-.24,1.39-.93,1.87-1.64.31-.47.58-.96.69-1.52.01-.06.02-.15.12-.14Z"/>
  <path class="st5" d="M26.29,63.07c.11-.14.23-.12.33,0,.23.25.55.36.81.56.11.08.22.13.36.13.2,0,.46,0,.55-.17.08-.16-.17-.26-.27-.39-.13-.15-.29-.28-.42-.43-.19-.22,0-.22.15-.23.67.41,1.25.96,2.02,1.37-.13-.56-.16-1.05-.34-1.52-.01-.12-.02-.24-.04-.37-.03-.9-.07-1.8-.1-2.69.22-2.45.62-4.85,2.07-6.93.03-.05.07-.09.11-.13.03.04.07.07.1.11-.12.24-.25.49-.37.73-.14.1-.18.25-.25.39-.91,1.83-1.35,3.75-1.18,5.8.04.84.19,1.67.41,2.49.36,1.35.89,2.62,1.94,3.59.77.72,1.73,1.18,2.66,1.64,2.75,1.37,5.54,2.66,8.32,3.97,2.22,1.05,4.45,2.09,6.67,3.13.04.02.07.08.1.13-.04.05-.08.1-.11.15-.83-.29-1.6-.71-2.4-1.07-3.52-1.62-7.04-3.22-10.5-4.97-1.09-.55-2.17-1.11-3.26-1.64-1.48-.71-2.89-1.56-4.35-2.31-.83-.43-1.54-.41-2.27.14-.17-.08-.07-.16,0-.21.3-.22.22-.42-.02-.62-.19-.17-.38-.35-.56-.53-.01-.06-.04-.11-.12-.11h0Z"/>
  <path class="st1" d="M82.28,134.57c-.18.27-.42.17-.65.1-.97-.28-1.86-.75-2.78-1.14-1.22-.53-2.44-1.06-3.64-1.64-1.61-.78-3.29-1.41-4.92-2.15-.08-.04-.17-.13-.26-.02-1.32-.53-2.59-1.17-3.87-1.78-1.77-.85-3.54-1.72-5.3-2.58-.03-.16-.05-.31-.08-.47.13.05.27.1.4.16,1.35.63,2.7,1.27,4.05,1.9,3.23,1.49,6.46,2.97,9.69,4.46,1.98.91,3.95,1.84,5.94,2.74.45.21.92.41,1.43.42Z"/>
  <path class="st5" d="M60.77,124.89c.03.16.05.31.08.47-1.61-.76-3.21-1.54-4.84-2.27-3.7-1.65-7.41-3.3-11.05-5.07-.26-.12-.51-.26-.76-.4.12-.09.24-.18.36-.27,1.46.68,2.93,1.37,4.39,2.05,1.43.66,2.84,1.36,4.3,1.96.24.13.47.27.72.38,1.12.51,2.25,1,3.36,1.51,1.15.53,2.3,1.09,3.44,1.63Z"/>
  <path class="st1" d="M44.56,117.36c-.12.09-.24.18-.36.28-1.69-.76-3.38-1.53-5.06-2.29-.44-.2-.88-.41-1.32-.62-.03-.03-.07-.07-.1-.1,0,0-.01.03-.01.02.01-.07.01-.14-.07-.18-1.28-.61-2.55-1.22-3.83-1.83-.85-.41-1.7-.81-2.55-1.21,0-.14,0-.28,0-.43.86.41,1.72.83,2.58,1.24.95.45,1.91.9,2.87,1.35.11.07.22.14.33.2.64.34,1.29.68,2.01.83.46.28.95.5,1.45.71.71.35,1.38.78,2.13,1.07.67.26,1.3.64,1.95.97Z"/>
  <path class="st0" d="M83.17,134.75c-.2-.17-.1-.3.07-.4.7-.43,1.39-.85,2.09-1.28,3.35-2.04,6.77-3.97,10.08-6.07.51-.32,1.01-.65,1.53-.96.19-.12.4-.21.54.07-2.95,1.78-5.91,3.56-8.85,5.35-1.3.79-2.58,1.62-3.88,2.41-.51.31-1.05.59-1.57.88Z"/>
  <path class="st1" d="M17.06,91.65c.15-.03.24.08.33.17,1.05,1.02,2.36,1.43,3.76,1.63.73.11,1.45.11,2.18.01.33-.04.41-.17.4-.46-.02-.63-.27-1.2-.52-1.76-.25-.57-.54-1.11-.87-1.63-.1-.15-.19-.29-.16-.48.94,1.11,1.73,2.32,2.12,3.74.24.87-.03,1.21-.97,1.27-1.17.07-2.32-.1-3.45-.41-1.14-.31-2.06-.92-2.74-1.88-.04-.05-.05-.13-.08-.19Z"/>
  <path class="st1" d="M44.96,26.18c-.36.27-.53.69-.8,1.03-.62.8-1.2,1.63-1.79,2.45-.78,1.09-1.22,2.32-1.53,3.6-.03.13-.03.26-.15.34-.11-1.11.11-2.16.5-3.19.15.01.23-.07.3-.2.79-1.42,1.7-2.75,2.56-4.13.21-.34.52-.67.38-1.14,0,0,0,0,0,0,.04,0,.07,0,.11.01.02.02.02.03.02.06.02.04.03.08.05.12l.35,1.05Z"/>
  <path class="st1" d="M53.27,41.9c-.73-.17-1.38-.56-2.08-.8-1.03-.35-2.01-.85-3.08-1.13-.12-.03-.25-.05-.38-.08-1.23-.38-2.51-.45-3.78-.5-1.16-.04-2.33-.08-3.52.05,1.09-.23,2.18-.23,3.25-.38.51.16,1.05.09,1.57.12,1.84.13,3.62.51,5.34,1.16.11.04.22.06.33.08.02,0,.04.02.05.03,0-.02-.02-.04-.03-.05,0-.19-.23-.33-.12-.58.41.43.8.86,1.32,1.13.17.22.43.31.64.47.19.14.46.18.49.47Z"/>
  <path class="st6" d="M88.48,32.31c-.49,1.16-.97,2.32-1.46,3.48-.28.68-.49,1.4-.85,2.04-.33-.24-.57-.23-.77.18-.09.17-.1.43-.34.52-.05-.12.15-.25-.02-.36.77-1.51,1.53-3.02,2.3-4.53.24-.47.48-.95.72-1.42.14.03.28.06.42.09Z"/>
  <path class="st4" d="M123.14,42.92c-.36.65-.81,1.24-1.24,1.85-.73,1.04-1.47,2.08-2.11,3.18-.03.04-.07.08-.11.14-.11-.68,1.31-3.16,2.93-5.17.17,0,.35,0,.52,0Z"/>
  <path class="st6" d="M44.43,24.94c.14.47-.17.8-.38,1.14-.86,1.37-1.78,2.71-2.56,4.13-.07.12-.14.21-.3.2.32-1.13.9-2.14,1.5-3.14.4-.68.83-1.34,1.35-1.95.12-.14.21-.31.4-.37Z"/>
  <path class="st5" d="M31.24,111.42c.85.4,1.7.81,2.55,1.21,1.28.61,2.55,1.22,3.83,1.83.08.04.08.11.07.18-1.11-.35-2.16-.85-3.21-1.33-1.04-.47-2.07-.99-3.1-1.49-.15-.07-.3-.17-.49-.13.12-.09.23-.18.35-.27Z"/>
  <path class="st1" d="M88.48,32.31c-.14-.03-.28-.06-.42-.09.42-.96.82-1.94,1.33-2.86.17.02.19-.2.44-.21-.39,1.11-.85,2.15-1.35,3.16Z"/>
  <path class="st5" d="M99.56,36.18c-.38-.54-.55-1.18-.9-1.74-.36-.58-.68-1.18-1.06-1.75-.06-.09-.13-.19-.09-.32.62.79,1.09,1.67,1.63,2.51.16.36.33.72.49,1.08-.08.06-.05.15-.06.22Z"/>
  <path class="st1" d="M85.04,38.17c.17.11-.03.24.02.36-.06.27-.27.48-.29.76-.1.02-.16.08-.15.18-.26.32-.28.76-.55,1.07-.06-.22-.08-.46-.22-.65.02-.05.04-.11.06-.16.19.22.2-.03.24-.1.3-.48.59-.97.89-1.45Z"/>
  <path class="st5" d="M97.51,32.37c-.37-.34-.65-.73-.78-1.22.32.37.58.77.78,1.22Z"/>
  <path class="st6" d="M115.26,30.66c-.09-.2-.11-.4.02-.6.09.2,0,.4-.02.6Z"/>
  <path class="st1" d="M22.18,89.13c-.23,0-.27-.14-.27-.33.12.08.22.19.27.33Z"/>
  <path class="st5" d="M95.01,28.74c-.18-.05-.28-.15-.27-.35.14.08.23.19.27.35Z"/>
  <path class="st5" d="M95.78,29.78c-.18-.05-.29-.15-.26-.36.14.08.22.2.26.36Z"/>
  <path class="st5" d="M94.03,27.55c-.17-.01-.26-.1-.26-.27.13.05.21.15.26.27Z"/>
  <path class="st5" d="M93.52,27.03c-.17,0-.26-.09-.27-.25.12.05.22.13.27.25Z"/>
  <path class="st5" d="M24.1,86.81c.14.03.37-.1.38.19-.15-.02-.28-.08-.38-.19Z"/>
  <path class="st5" d="M96.56,30.9c-.17-.03-.2-.15-.19-.3.11.07.18.17.19.3Z"/>
  <path class="st5" d="M96.21,30.39c-.15-.03-.2-.12-.18-.27.11.05.17.14.18.27Z"/>
  <path class="st5" d="M96.73,31.16c-.15-.03-.21-.12-.18-.27.11.05.16.15.18.27Z"/>
  <path class="st5" d="M95.27,29.09c-.16-.02-.2-.12-.19-.26.11.05.17.14.19.26Z"/>
  <path class="st5" d="M96.04,30.13c-.14-.03-.2-.12-.18-.26.11.06.17.15.18.26Z"/>
  <path class="st1" d="M27.36,94.66c.12.14.12.29,0,.44,0-.15,0-.29,0-.44Z"/>
  <path class="st5" d="M96.37,30.58c-.12-.02-.19-.07-.16-.2.1.03.14.11.16.2Z"/>
  <path class="st6" d="M115.2,29.37c-.09-.03-.1-.1-.09-.18.06.05.17.07.09.18Z"/>
  <path class="st5" d="M94.56,28.16c-.12,0-.18-.06-.17-.19.09.03.14.1.17.19Z"/>
  <path class="st1" d="M27.08,107.4c-.09.06-.18.06-.25-.03.08.01.17.02.25.03Z"/>
  <path class="st5" d="M92.4,26.24c-.1,0-.21.03-.27-.09.1,0,.2,0,.27.09Z"/>
  <path class="st1" d="M83.86,39.55c-.14-.07-.1-.19-.09-.3.08.08.09.19.09.3Z"/>
  <path class="st1" d="M83.77,39.21c-.09-.05-.1-.13-.08-.23.07.06.08.14.08.23Z"/>
  <path class="st1" d="M113.42,25.11s0-.04,0-.05c0,0,.01,0,.02,0,0,.01,0,.03-.01.06Z"/>
  <path class="st5" d="M92.58,26.33c-.08.01-.15,0-.18-.09.08,0,.15.02.18.09Z"/>
  <path class="st5" d="M92.75,26.42c-.08,0-.15,0-.18-.1.08,0,.14.02.18.1Z"/>
  <path class="st5" d="M92.91,26.51c-.07,0-.14-.02-.17-.1.07,0,.13.04.17.1Z"/>
  <path class="st5" d="M93.25,26.78c-.08,0-.14-.02-.16-.11.07,0,.13.04.16.11Z"/>
  <path class="st1" d="M26.29,63.07c.07,0,.1.05.12.11-.04-.04-.08-.08-.12-.11Z"/>
  <path class="st5" d="M94.74,28.41c-.09-.02-.1-.09-.11-.16.06.04.11.09.11.16Z"/>
  <path class="st5" d="M94.15,27.7c-.1,0-.11-.08-.12-.16.07.03.11.08.12.16Z"/>
  <path class="st5" d="M95.53,29.43c-.1-.01-.11-.08-.11-.17.07.03.11.09.11.17Z"/>
  <path class="st6" d="M44.54,24.95s-.07,0-.11-.01c.05-.08.08-.07.11.01Z"/>
  <path class="st1" d="M83.67,38.87s-.06-.07-.09-.11c.03.04.06.07.09.11Z"/>
  <polygon class="st4" points="26.78 64.56 26.81 64.55 26.8 64.57 26.78 64.56"/>
  <path class="st5" d="M93.78,27.29s-.06-.06-.09-.09c.03.03.06.06.09.09Z"/>
  <path class="st5" d="M93.69,27.2s-.06-.06-.09-.09c.03.03.06.06.09.09Z"/>
  <path class="st5" d="M93.61,27.12s-.06-.06-.09-.09c.03.03.06.06.09.09Z"/>
  <path class="st5" d="M93.1,26.67s-.07-.06-.1-.09c.03.03.07.06.1.09Z"/>
  <path class="st5" d="M93,26.6s-.07-.05-.1-.08c.03.03.07.05.1.08Z"/>
  <path class="st6" d="M44.61,25.13s-.03-.08-.05-.12c.02.04.03.08.05.12Z"/>
  <path class="st5" d="M95.86,29.88s-.06-.07-.09-.1c.06,0,.08.05.09.1Z"/>
  <path class="st5" d="M95.42,29.28s-.06-.07-.09-.1c.03.03.06.07.09.1Z"/>
  <path class="st5" d="M95.35,29.18c-.06-.01-.09-.04-.09-.1.06,0,.08.05.09.1Z"/>
  <path class="st1" d="M16.89,91.46s.06.07.1.1c-.03-.03-.06-.07-.1-.1Z"/>
  <path class="st1" d="M16.98,91.55s.06.06.09.09c-.06,0-.08-.04-.09-.09Z"/>
  <path class="st5" d="M95.08,28.84s-.06-.07-.09-.1c.06,0,.08.05.09.1Z"/>
  <path class="st6" d="M115.18,31.09s-.02-.04-.02-.06c0,0,.02-.01.03-.02,0,.03,0,.06-.01.08Z"/>
  <path class="st5" d="M37.7,114.62s.07.07.1.1c-.05-.01-.11-.02-.1-.1Z"/>
  <path class="st5" d="M94.39,27.98s-.06-.07-.09-.1c.03.03.06.07.09.1Z"/>
  <path class="st5" d="M94.31,27.88c-.06,0-.09-.04-.09-.1.03.03.06.07.09.1Z"/>
  <path class="st5" d="M94.23,27.79c-.06,0-.09-.04-.09-.1.06,0,.09.04.09.1Z"/>
  <path class="st6" d="M39.02,114.61c-.72-.15-1.37-.49-2.01-.83-.11-.06-.22-.13-.33-.2-.04-.22-.24-.27-.39-.36-.87-.5-1.75-.98-2.61-1.51-.7-.44-1.38-.94-2.2-1.17-.15-.04-.3-.14-.43.03-.56-.76-1.06-1.56-1.77-2.19-.39-.34-.79-.65-1.3-.79-.1-.49.06-.97.06-1.46,0-2.43,0-4.87,0-7.3,0-.47.16-.79.63-.95.45-.15.79-.53,1.24-.68.12-.04.21-.17.2-.31-.02-.41.06-.83-.06-1.24-.03-.11-.07-.24.02-.33.12-.12.25,0,.35.05,1.48.8,2.95,1.6,4.42,2.41,1.7.94,3.42,1.83,5.17,2.68.25.12.46.28.66.47,1.73,1.62,3.37,3.35,5.09,4.98,1.1,1.04,2.13,2.15,3.24,3.16,1.46,1.33,2.84,2.75,4.46,3.91.68.49,1.44.62,2.23.66.88.04,1.76.06,2.63,0,1.47-.1,2.94-.14,4.41-.31.51-.06,1.03-.07,1.53-.19.19-.04.36.07.53.14,1.25.57,2.3,1.44,3.45,2.17.86.55,1.72,1.08,2.63,1.54.71.36,1.33.3,2.01-.01.79-.37,1.4-.97,2.08-1.49,1.21-.93,2.41-1.87,3.42-3.01.44-.5.96-.95,1.22-1.59.08-.09.17-.18.25-.27.19,0,.41,0,.33.29-.11.38-.04.77-.06,1.15,0,.24,0,.49.02.73.02.15.12.28.27.3.18.02.18-.15.22-.26.12-.31.2-.63.35-.92.12-.25.21-.58.59-.58-.08,1.89-.16,3.79-.24,5.68,0,1.02-.21,2.04,0,3.06.09-.37.11-.75.17-1.12.04-.23-.08-.57.32-.62,0,1.19.03,2.39.02,3.58-.04,2.6.07,5.2.11,7.8.02,1.36.07,2.72.31,4.07.05.25,0,.52,0,.78-.52-.01-.98-.21-1.43-.42-1.98-.91-3.96-1.83-5.94-2.74-3.23-1.49-6.46-2.97-9.69-4.46-1.35-.62-2.7-1.27-4.05-1.9-.13-.06-.26-.1-.4-.16-1.15-.55-2.29-1.1-3.44-1.63-1.12-.52-2.24-1.01-3.36-1.51-.25-.11-.48-.25-.72-.38.14-.27-.01-.57-.18-.62-.36-.1-.6-.35-.9-.5-1.91-.93-3.84-1.81-5.74-2.77-.13-.07-.26-.11-.39-.18-1.59-.74-3.17-1.48-4.76-2.23-.24-.12-.52-.48-.61.13,0,.02-.08.02-.12.03-.53-1.06-1.38-1.86-2.16-2.73.01.22.05.43.12.62.17.5.34.99.52,1.49ZM67.65,127.08c-.03.19.1.25.2.31.59.35,1.16.74,1.77,1.05,2.03,1.05,4.15,1.88,6.23,2.81,1.44.65,2.88,1.29,4.37,1.81.25.09.5.13.76.12.28-.01.4-.14.43-.42.04-.33-.11-.62-.18-.92-.15-.59-.07-1.23-.34-1.8-.05-.1-.05-.27-.18-.25-.15.02-.15.18-.16.31,0,.09,0,.17,0,.26-.05.64-.82,1.36-1.39,1.26-.32-.05-.64-.12-.95-.25-.92-.39-1.85-.76-2.79-1.12-2.31-.89-4.66-1.69-6.87-2.83-.27-.14-.55-.35-.9-.35Z"/>
  <path class="st6" d="M142.56,82.04c-.77.58-1.63,1.01-2.44,1.53-.46.29-.91.6-1.39.86-2.97,1.65-5.87,3.43-8.76,5.23-2.28,1.42-4.49,2.96-6.81,4.31-1.3.76-2.64,1.46-3.97,2.18-.07.04-.16.04-.24.06-.08.05-.34-.13-.22.17-.09.1-.2.15-.33.18-.3-.25-.5.04-.73.14-.28.13-.57.31-.85.11-.38-.26-.83-.43-1.06-.91-.08-.17-.27-.53-.6-.3-.33.23-.37.05-.43-.22-.05-.23-.16-.35-.43-.23-.75.33-1.5.65-2.26.96-.86.34-1.71.75-2.63.93-.62.12-.99-.29-.83-.9.18-.67.58-1.16,1.12-1.57.47-.35,1-.62,1.43-1.03.32-.3.32-.69.13-1.03-.14-.27-.26-.69-.75-.48-.15.06-.21-.09-.29-.19-1.2-1.42-2.41-2.82-3.9-3.97-.7-.54-1.28-1.23-2.09-1.64-.24-.12-.21-.35-.2-.57.01-.22.18-.28.35-.33.4-.1.81-.19,1.21-.28.31-.07.65-.12.84-.39.24-.33.59-.39.93-.46.19-.04.41.02.6-.02.28-.07.69,0,.64-.5,1.57-.07,3.12.1,4.65.4.47.09.95.18,1.44,0,.7-.24,1.39-.54,2.12-.72.11-.03.25-.06.3-.22-.02-.02-.04-.05-.06-.05-1.34,0-2.68-.08-4.01.02-1.04.08-2.06.02-3.09-.08-1.17-.11-2.32-.31-3.48-.48-.13-.02-.3.02-.32-.14-.02-.16.16-.17.28-.21.57-.21,1.15-.06,1.7.03,1.79.27,3.58.17,5.34-.14,2.24-.4,4.49-.69,6.74-1,.23-.03.5-.05.65.14.39.52.96.56,1.52.69,1.55.37,3.12.56,4.71.62,1.48.05,2.95,0,4.41-.25,1.22-.2,2.44-.33,3.43-1.19.28-.25.47-.49.45-.87.2-.02.4-.03.6-.05.91-.1,1.79-.34,2.68-.57.24.59.7,1.07.89,1.69.06.18.2.26.38.3.79.21,1.53,0,2.27-.22.18-.05.41-.12.53.01.12.12-.08.28-.13.42-.02.07-.05.13-.07.2Z"/>
  <path class="st4" d="M108.62,83.7c.05.49-.36.44-.64.5-.19.05-.41-.02-.6.02-.34.07-.69.13-.93.46-.19.26-.53.32-.84.39-.41.09-.81.17-1.21.28-.17.04-.34.11-.35.33-.01.22-.04.45.2.57.81.41,1.39,1.1,2.09,1.64,1.5,1.14,2.71,2.54,3.9,3.97.08.1.14.26.29.19.5-.22.61.21.75.48.19.34.19.73-.13,1.03-.43.41-.96.67-1.43,1.03-.54.41-.94.9-1.12,1.57-.16.61.21,1.02.83.9.92-.18,1.77-.58,2.63-.93.76-.3,1.51-.63,2.26-.96.27-.12.38,0,.43.23.06.27.1.45.43.22.33-.23.51.12.6.3.22.48.68.65,1.06.91.28.2.57.02.85-.11.23-.11.43-.39.73-.14-.92.57-1.86,1.12-2.77,1.7-.83.53-1.66,1.06-2.51,1.55.01-.22-.11-.28-.3-.24-1.27.25-2.57.4-3.82.77-.54.16-.89.45-.97,1.01-.04.29-.18.31-.42.21-.31-.12-.54-.39-.88-.44h0c-.05-.09-.11-.1-.17,0-.22-.12-.45-.25-.67-.36-.1-.05-.22-.11-.31-.01-.09.09,0,.18.03.27.09.27.17.54.26.8-.55-.11-.99-.45-1.46-.71-1.54-.84-3.04-1.75-4.51-2.7-.24-.15-.5-.27-.76-.41,0-.06,0-.12,0-.18.14.04.29.09.43.13.63.46,1.35.76,2,1.16.54.33,1.09.64,1.72,1.01-.08-.27-.2-.36-.33-.45-.95-.64-1.9-1.28-2.85-1.93-.13-.09-.26-.17-.43-.17-.41-.3-.81-.61-1.3-.77-.65-.36-1.39-.49-2.07-.77-1.2-.49-2.27-1.23-3.36-1.92-.69-.43-1.41-.83-2.03-1.37.74.07,1.35.49,2.04.7-.75-.79-1.63-1.31-2.74-1.38-.79-.27-1.47-.76-2.17-1.19-.72-.45-1.43-.94-2.14-1.41.08-.09.18-.06.28-.08,1.58-.22,3.08-.68,4.45-1.51.25-.15.51-.31.45-.66-.07-.38-.2-.71-.6-.86-.01-.05-.02-.1-.03-.15-.01-.04-.02-.07-.04-.11l-.16-.51c.34-.02.62-.2.93-.32.73-.28,1.42-.78,2.21-.8,1.46-.04,2.92-.06,4.37-.19.81-.07,1.63-.07,2.43-.19,1.75-.26,3.51-.27,5.26-.4,1.04-.08,2.1-.01,3.15-.02ZM115.53,96.29c-.05-.14-.05-.37-.28-.38-.15,0-.26.12-.23.29.03.2.06.42.31.43.18,0,.2-.16.2-.34Z"/>
  <path class="st0" d="M99.56,36.18c.02-.07-.02-.16.06-.22,1.43,2.53,2.57,5.19,3.4,7.98.42,1.41.82,2.82,1.03,4.28,0,.05.04.1.07.16.02.44.12.83.44,1.17,1.25,1.31,2.38,2.72,3.46,4.18.07.14.16.27.3.35.11.43.43.73.71,1.04.66.77,1.61,1.01,2.53,1.28.07.17.32,0,.39.2-.19.17-.4.32-.64.42-.12.05-.23.12-.08.24.44.36.89.87,1.47.83.94-.06,1.46.3,1.97,1.08.73,1.11,1.44,2.21,1.75,3.51.14.59.24,1.19.36,1.79.04-.01.07,0,.09-.03,1.17-1.36,2.67-2.13,4.42-2.46.19-.04.45.07.57-.2.14.1.27.04.41,0,1.57-.41,3.71.4,4.63,1.75.17.25.34.51.29.83-.33.46-.83.76-1.15,1.22,1.83-.82,3.48-1.92,5.22-2.89l.31.07c-.02.25-.09.48-.31.62-.86.46-1.71.93-2.57,1.39-.96.51-1.93,1-2.87,1.54-1.25.72-2.45,1.51-3.72,2.17-.32.16-.64.27-.99.16-.11-.04-.19-.02-.27.07-.48.6-1.18.85-1.84,1.18-.13.06-.27.1-.35.24-.52.12-.98.37-1.45.61-1.16.58-2.33,1.15-3.49,1.75-.66.34-1.22.84-1.83,1.28-2.08,1.51-4.23,2.92-6.47,4.2-.47.27-.9.62-1.49.54,2.71-1.51,5.38-3.07,7.78-5.08,1.92-1.6,3.34-3.5,3.95-5.95.06-.22.12-.45,0-.67.05-.26.11-.53.16-.79.48-.73.47-1.54.35-2.36-.18-1.31-.76-2.44-1.56-3.58-.18,1.07-.39,2.03-.89,2.9-.1.03-.21.05-.31.08-.94-.19-1.87-.39-2.81-.57-.62-.11-1.21-.35-1.84-.37-.25-.18-.5-.36-.75-.54-.03-.18-.05-.36-.08-.57-.91.24-1.78.52-2.65.84-.1-.1-.11-.27-.26-.34-.52-1.29-.63-2.59.02-3.86.49-.97,1.3-1.5,2.38-1.6.01.01.02.02.03.04-1.33,1.17-1.72,2.74-1.9,4.4-.02.2-.06.39-.08.59-.04.26.15.32.32.24,1.51-.7,3.15-1.14,4.52-2.13.03-.02.05-.07.07-.1.54-.34,1.12-.6,1.73-.87-.3-.23-.55-.44-.82-.63-.17-.12-.29-.34-.55-.28-.07-.21.06-.27.23-.33.2-.06.42-.11.61-.3-.29-.08-.56-.18-.83-.24-1.17-.27-2.03-.95-2.69-1.93-1.34-1.98-2.89-3.79-4.61-5.45-1.55-1.5-3.27-2.79-5.26-3.67-.46-.2-.94-.31-1.56-.46.65-.35,1.3-.46,1.73-.96,0-.01.01-.02.02-.03,0,.01,0,.03-.01.04-.44-.04-.83.15-1.25.23-.56.1-1.13.12-1.7.12-.31-.34.09-.31.2-.33.68-.1,1.34-.28,2-.46.28-.08.58-.13.8-.4-.34-.08-.63.08-.92.08-.23,0-.46,0-.69,0-.46-.08-.93-.14-1.39-.24-1.97-.43-3.96-.72-5.98-.65-.17,0-.35.06-.5-.07.13-.17.27-.34.4-.52,0-.02,0-.04.01-.07-.02,0-.05,0-.07.01-.23.08-.46.16-.69.24-.07,0-.14-.02-.21-.03-.63-.08-.72-.19-.55-.79.24-.85.41-1.72.57-2.59.03-.14.02-.29.01-.43-.01-.18-.14-.29-.28-.36-.15-.08-.23.08-.31.17-.66.67-1.18,1.43-1.43,2.36-.03.1.05.37-.18.3-.18-.05-.35-.23-.27-.47.14-.41.27-.81.51-1.18.17-.27.33-.54.18-.88-.07-.17.04-.34.11-.49.72-1.71,1.41-3.42,2.25-5.07.77-1.51,1.41-3.08,2.08-4.63.17-.4.38-.77.63-1.12.7-.12,1.18.3,1.62.73.77.77,1.36,1.67,1.92,2.59.88,1.44,1.65,2.93,2.25,4.51.91,2.41,1.52,4.9,1.78,7.46.11,1.04.14,2.09-.05,3.13-.04.21.04.31.22.41.77.41,1.51.89,2.22,1.4.34.24.62.55.94.82.16.14.32.29.58.35-.28-1.5-.49-2.99-.88-4.44-.68-2.5-1.58-4.92-2.7-7.26-.03-.06-.03-.14-.04-.21ZM109.12,61.31c.85-.65,1.65-1.36,2.43-2.08.33-.13.54-.41.79-.65-.28.09-.56.17-.78.37-.34.19-.69.35-1.01.56-.7.44-1.46.81-2.07,1.39-.28.27-.23.41.15.56.92.45,1.92.56,2.91.68-.63-.22-1.28-.38-1.93-.56-.18-.05-.42-.03-.5-.27ZM111.83,62.24v-.02s-.04,0-.04,0h.04Z"/>
  <path class="st1" d="M108.62,83.7c-1.05,0-2.1-.06-3.15.02-1.75.13-3.52.14-5.26.4-.8.12-1.62.12-2.43.19-1.46.13-2.91.15-4.37.19-.79.02-1.48.51-2.21.8-.31.12-.59.31-.93.32-.18-.32-.37-.64-.55-.96,2.69-.92,5.32-1.97,7.99-2.95.52-.19,1.06-.34,1.6-.49.25-.07.47-.04.43.32-.02.21.1.26.29.27.66.03,1.31-.08,1.97-.12.67-.04,1.33-.14,2-.23.86-.11,1.71-.07,2.57,0,.2.02.4,0,.31.3-.06.2.02.23.19.18,1.46-.4,2.96-.44,4.46-.56,1.76-.14,3.51-.45,5.26-.65.99-.11,1.99-.22,2.96-.41.96-.19,1.93-.35,2.87-.67,1.31-.45,2.67-.8,4.07-.94,1.83-.18,3.66-.46,5.51-.44.08.24-.14.47-.02.74.04-.09.09-.14.1-.21.13-.97.49-1.87.81-2.78.17-.5.5-.93.6-1.46.92-.64,2-.84,3.07-1.03.59-.1,1.19-.17,1.79-.19.28,0,.49-.09.65-.41.18-.37.6-.58.91-.88.36-.34.82-.4,1.24-.57.59-.25,1.05-.7,1.38-1.24.16-.26.29-.25.51-.13,1.16.65,2.34,1.29,3.5,1.95,1.69.95,3.37,1.91,5.06,2.85.5.28.51.32.26.81-.24.47-.68.75-1.07,1.04-2.17,1.65-4.54,3-6.88,4.41-.51.31-.99.69-1.56.9.02-.07.05-.13.07-.2.04-.15.24-.3.13-.42-.13-.13-.35-.07-.53-.01-.74.22-1.49.42-2.27.22-.18-.05-.33-.12-.38-.3-.19-.62-.65-1.1-.89-1.69.49-.26.99-.48,1.42-.87.53-.48,1.09-.92,1.65-1.37.56-.45.49-1.05.37-1.65-.03-.15-.15-.23-.31-.26-.46-.08-.92-.18-1.39-.26-.48-.08-.82.06-1.08.55-.75,1.43-1.78,2.63-3.1,3.58-.4.28-.8.55-1.27.87.21.02.32.02.44.03.02.38-.17.62-.45.87-.99.87-2.21,1-3.43,1.19-1.46.24-2.94.3-4.41.25-1.59-.05-3.16-.25-4.71-.62-.55-.13-1.13-.17-1.52-.69-.15-.2-.42-.17-.65-.14-2.25.31-4.5.6-6.74,1-1.77.31-3.55.41-5.34.14-.56-.08-1.13-.24-1.7-.03-.11.04-.3.05-.28.21.02.16.19.13.32.14,1.16.16,2.32.37,3.48.48,1.02.09,2.05.15,3.09.08,1.33-.1,2.67-.02,4.01-.02.02,0,.04.03.06.05-.04.16-.19.19-.3.22-.73.18-1.41.48-2.12.72-.49.17-.97.08-1.44,0-1.54-.29-3.09-.47-4.65-.4Z"/>
  <path class="st4" d="M115.65,66.8c.12.23.05.45,0,.67-.62,2.45-2.03,4.35-3.95,5.95-2.4,2-5.06,3.57-7.78,5.08-.56.18-1.06.5-1.59.76-3.61,1.79-7.43,3.02-11.24,4.25-.63.2-1.26.39-1.89.59-.03,0-.07.02-.08,0-.72-.62-1.52-1.12-2.32-1.61.16-.14.35-.18.56-.18.27,0,.54.03.82-.04,2.01-.46,3.98-1.05,5.99-1.5,1.78-.39,3.51-.94,5.17-1.71,1.37-.63,2.66-1.41,3.89-2.28.88-.62,1.46-1.49,1.99-2.4.31-.53.68-1.01,1.27-1.24,1.2-.46,2.16-1.3,3.2-1.99,1.33-.89,2.48-2.03,3.57-3.21.32-.35.65-.73.75-1.22.1-.19.31-.25.44-.39.48-.05.86.16,1.21.45Z"/>
  <path class="st0" d="M86.78,82.49c.81.49,1.61.99,2.32,1.61.02.01.06,0,.08,0,.18.18.35.36.53.55.18.32.37.64.55.96.05.17.1.34.16.51.01.04.02.07.04.11.01.05.02.1.03.15-.03.98-.1,1.15-.71,1.26-1.61.3-3.21.67-4.86.65-.36,0-.59.13-.81.38q-.74.86-1.83.39s-.08-.02-.13-.03c-.05-.03-.09-.03-.13.01h0c.03-.09-.05-.12-.1-.16-.97-.59-1.93-1.19-2.97-1.65-3.5-1.56-7.08-2.93-10.55-4.58-.1-.05-.2-.11-.3-.17.9.28,1.76.67,2.64,1.03,1.1.45,2.22.87,3.34,1.26.15.05.31.1.43-.05.14.01.26-.02.34-.14.61-.18,1.21-.36,1.82-.54,0,.06.01.11.02.17-.13.14-.32.11-.47.19-.58.12-1.08.46-1.72.57.36.28.7.39,1.08.36,1.18-.08,2.3-.44,3.42-.8,1.67-.44,3.28-1.05,4.89-1.66.54-.2,1.06-.47,1.58,0,.04-.02.07-.03.11-.05.08-.03.16-.06.24-.09.33.37.8.58,1.17.9.06.05.17.16.26.04.07-.1-.04-.18-.1-.26-.32-.39-.75-.66-1.17-.93-.2-.09-.41-.18-.61-.27,0-.07.01-.14.02-.21.5.04.92.32,1.38.47Z"/>
  <path class="st1" d="M131.56,62.76c-.1-.02-.2-.05-.31-.07-.49-.25-1.03-.34-1.54-.5-.23-.07-.26-.15-.18-.36.22-.53.33-1.09.44-1.65.16-.85.14-.91-.25-1.61-.01-.02-.02-.06,0-.08.16-.27.06-.63.31-.87,1.68-.65,3.43-1.08,5.2-1.41.74-.14,1.49-.36,2.27-.24.21.03.37-.11.53-.23.25-.19.45-.5.84-.45-2.38,2.55-4.61,5.24-7.3,7.48Z"/>
  <path class="st0" d="M60.89,105.83c.24.11.47.08.69-.08.32-.23.68-.41.94-.72,0,0-.01,0-.01,0l.13-.09c.15,0,.25-.13.37-.19.63-.34.9-1.04,1.5-1.44,1.14-.75,2.2-1.6,3.28-2.43,1.38-1.07,2.81-2.08,4.24-3.1,2.5-1.78,4.95-3.65,7.48-5.39,1.28-.88,2.58-1.72,3.82-2.66.08,0,.16.02.24.03,1.44,1.27,3.03,2.32,4.7,3.34-.3,0-.37-.03-.66-.19-1.12-.62-2.15-1.37-3.18-2.13-.18-.13-.28-.15-.48-.05-.29.16-.58.31-.85.5-.41.28-.62.67-.65,1.19-.07,1.3-.23,2.59-.39,3.88-.09.71-.05,1.43,0,2.15.04.58,0,1.17-.05,1.76-.19-.08-.15-.2-.15-.3-.11-2.64-.09-5.29-.1-7.94,0-.15.08-.37-.05-.45-.16-.1-.32.08-.46.16-1.96,1.22-3.81,2.62-5.69,3.95-.73.51-1.46,1.02-2.18,1.53-.16.11-.37.19-.35.45,0,.1-.09.14-.16.18-2.52,1.64-4.85,3.51-7.25,5.32-1.27.96-2.53,1.94-3.85,2.83-.28.19-.57.29-.87.04-.03-.02-.01-.11-.02-.16Z"/>
  <path class="st2" d="M105.86,101.84c-.09-.27-.17-.54-.26-.8-.03-.09-.12-.19-.03-.27.1-.1.21-.04.31.01.23.12.45.24.67.36.06,0,.11,0,.17,0h0c.12.3.43.39.66.57.59.45.75.42,1.04-.26.21-.51.55-.82,1.08-.94.25-.06.5-.12.75-.17.35-.07.68-.13.94.19.08.09.18.1.25-.02.27-.55.79-.37,1.23-.42-1.45.9-2.9,1.8-4.38,2.65-.4.23-.75.22-1.12-.02-.44-.29-.94-.5-1.31-.89Z"/>
  <path class="st1" d="M118.64,70.12c.07-.14.22-.18.35-.24.65-.33,1.36-.58,1.84-1.18.07-.09.15-.1.27-.07.35.11.67,0,.99-.16,1.28-.66,2.48-1.45,3.72-2.17.94-.54,1.91-1.03,2.87-1.54.86-.46,1.71-.92,2.57-1.39.1.1.33.05.33.22,0,.17-.19.2-.31.25-1.56.64-2.95,1.59-4.47,2.32-.63.3-1.26.58-1.79,1.05,1.59-.41,2.98-1.31,4.54-1.8-3.61,1.86-7.46,3.2-11.03,5.24,0-.24.21-.36.13-.54Z"/>
  <path class="st1" d="M83.56,89.77c-.08,0-.16-.02-.24-.03-.35-.3-.85-.3-1.2-.6,0-.04.02-.07.03-.11.04,0,.09.01.13.03q1.09.46,1.83-.39c.22-.25.45-.38.81-.38,1.65.02,3.25-.35,4.86-.65.61-.12.68-.29.71-1.26.4.15.54.49.6.86.06.35-.19.51-.45.66-1.37.83-2.87,1.29-4.45,1.51-.1.01-.2,0-.28.08-.36-.29-.73-.55-1.06-.86-.19-.17-.28-.17-.42.05-.24.4-.52.79-.88,1.1Z"/>
  <path class="st1" d="M114.3,79.72c.71,0,1.31,0,1.91,0,.12,0,.3-.02.31.15,0,.14-.17.14-.27.16-1.27.26-2.54.52-3.84.65-1.65.17-3.29.14-4.94.15-.09,0-.17,0-.26,0-.11,0-.26,0-.27-.15,0-.15.15-.08.24-.11,1.08-.28,2.18-.46,3.28-.62,1.31-.19,2.62-.27,3.83-.24Z"/>
  <path class="st1" d="M81.58,111.34c-.39,0-.47.33-.59.58-.15.29-.23.61-.35.92-.04.11-.04.29-.22.26-.16-.02-.26-.15-.27-.3-.02-.24-.03-.49-.02-.73.02-.38-.06-.77.06-1.15.09-.3-.13-.29-.33-.29.1-.29.3-.52.47-.76.56-.8.98-1.66,1.11-2.65.04,0,.09,0,.13.01v4.11Z"/>
  <path class="st6" d="M112.67,100.09c-.44.05-.96-.13-1.23.42-.06.12-.17.11-.25.02-.26-.33-.59-.26-.94-.19-.25.05-.5.12-.75.17-.54.12-.87.43-1.08.94-.29.68-.45.72-1.04.26-.23-.18-.54-.27-.66-.57.34.05.57.31.88.44.25.1.38.08.42-.21.09-.56.43-.86.97-1.01,1.25-.36,2.55-.51,3.82-.77.19-.04.31.02.3.24-.02.01-.03.02-.06.01-.14,0-.29-.02-.29.19-.03.02-.07.03-.1.05Z"/>
  <path class="st2" d="M96.18,98.29c1.68.97,3.35,1.95,5.03,2.93.14.08.36.14.33.33-.02.1-.2.2-.33.24-.2.06-.32-.11-.4-.26-.14-.27-.39-.42-.63-.57-1.35-.87-2.71-1.73-4.07-2.59.02-.02.05-.05.07-.07Z"/>
  <path class="st6" d="M133.69,74.53c-.1.53-.43.96-.6,1.46-.32.91-.68,1.82-.81,2.78,0,.06-.06.12-.1.21-.12-.27.1-.5.02-.74.07-1.12.39-2.16.94-3.13.14-.24.32-.44.56-.58Z"/>
  <path class="st1" d="M90.22,92.09c1.11.06,1.99.59,2.74,1.38-.69-.21-1.31-.63-2.04-.7,0,0,0,0,0,0-.02-.05-.04-.06-.08-.01-.28-.16-.65-.23-.62-.67Z"/>
  <path class="st1" d="M81.84,118.34c-.4.05-.28.39-.32.62-.06.37-.09.75-.17,1.12-.2-1.02,0-2.04,0-3.06.33-.04.45.09.43.43-.01.29.12.58.06.88Z"/>
  <path class="st4" d="M55.38,103.38c-1.36-.67-2.71-1.34-4.07-2.02-.13-.06-.31-.12-.3-.32.61.21,1.17.54,1.74.83.79.4,1.57.83,2.34,1.25.11.06.3.07.29.27Z"/>
  <path class="st2" d="M50.63,100.87c-.35.13-.64.04-.94-.19-.67-.51-1.49-.79-2.13-1.36,1.07.42,2.12.89,3.07,1.54Z"/>
  <path class="st1" d="M99.56,97.97c-.14-.04-.29-.09-.43-.13-.18-.23-.43-.29-.7-.33-.07-.01-.13-.03-.2-.04.19-.19-.11-.48.14-.65.49.17.89.48,1.3.78-.16.09-.1.24-.12.38Z"/>
  <path class="st4" d="M88.35,93.52c.57.14,1.01.49,1.47.81.07.05.09.15.04.23-.05.09-.14.12-.22.07-.5-.29-.93-.66-1.29-1.11Z"/>
  <path class="st6" d="M96.18,98.29s-.05.05-.07.07c-.44-.24-.9-.44-1.22-.85,0,0,0,0,0,0,.46.2.9.46,1.29.77Z"/>
  <path class="st6" d="M98.43,97.51c.26.04.52.1.7.33,0,.06,0,.12,0,.18-.23-.17-.55-.23-.7-.51Z"/>
  <path class="st4" d="M118.73,96.39c-.12-.3.14-.12.22-.17-.07.06-.14.11-.22.17Z"/>
  <path class="st4" d="M112.78,100.04c0-.22.15-.2.29-.19-.1.06-.19.13-.29.19Z"/>
  <path class="st6" d="M94.72,97.43c.07,0,.14.02.17.09,0,0,0,0,0,0-.07,0-.14-.02-.17-.09,0,0,0,0,0,0Z"/>
  <path class="st6" d="M94.64,97.34s-.05-.01-.08-.02c0-.01.01-.02.02-.03l.06.05h0Z"/>
  <path class="st2" d="M47.43,99.21s-.06,0-.08-.01c.03,0,.06,0,.08.01Z"/>
  <path class="st6" d="M94.63,97.34s.06.06.09.09c0,0,0,0,0,0-.03-.03-.06-.06-.09-.09h0Z"/>
  <path class="st2" d="M47.56,99.33s-.05-.05-.07-.07c.02.02.05.05.07.07Z"/>
  <path class="st4" d="M90.84,92.76c.03-.05.06-.04.08.01-.03,0-.05,0-.08-.01Z"/>
  <path class="st0" d="M49.77,74.39s.08-.1.11-.15c.47.19.9.5,1.4.63.03.12.14.15.23.18,1.14.43,2.21,1.03,3.33,1.5,1.74.74,3.49,1.47,5.22,2.22.72.31.7.34,1.31-.2.17-.15.34-.31.53-.43.33-.2.33-.32-.02-.52-1.26-.7-2.26-1.69-3.09-2.87-.07-.1-.2-.22-.12-.34.08-.11.24-.06.37-.03.14.03.27.1.41.13.48.1.91.35,1.41.37,0,0,0,.02.01.03,0,0,.02,0,.02,0-.01-.01-.02-.02-.04-.04-.11-.29-.42-.37-.63-.56-1.25-1.13-2.41-2.35-3.61-3.52-.22-.22-.41-.48-.69-.64-.32-.53-.8-.94-1.18-1.42-2.42-3.14-4.56-6.47-6.44-9.96-1.21-2.25-2.15-4.61-2.92-7.04,0-.47-.2-.89-.31-1.33-.38-1.44-.67-2.9-.79-4.39-.07-.88.15-1.22,1-1.43,1.38-.34,2.78-.39,4.19-.43.62-.02,1.23-.03,1.85-.04.78.03,1.55.07,2.33.1.55.19,1.13.11,1.69.17,1.32.14,2.64.29,3.96.48.72.1,1.43.29,2.16.27.51.18,1.05.25,1.58.33,1.32.2,2.6.56,3.91.81.08.02.17.02.26.03,1.55.38,3.11.75,4.68,1.02.21.25.52.19.79.24.58.09,1.19-.07,1.83.19-.4.19-.78.22-1.15.27-1.26.32-2.49,0-3.73-.16,0,.1.05.12.1.15.78.42,1.57.84,2.35,1.27.92.52,1.93.94,2.13,2.17,0,.03.05.06.08.09-.47,1.18-1.31,2.03-2.39,2.66-.12.07-.25.13-.38.2-1.41.46-2.83.67-4.31.34-1.06-.24-2.01-.77-3.01-1.15-.61-.23-1.18-.59-1.83-.74-.01-.01-.02-.03-.04-.04,0,0,0,.02,0,.02,0,0,.02,0,.03.01.16.22.42.29.64.41,1.66.91,3.38,1.67,5.21,2.19,1.23.45,2.51.58,3.92.51-.55.48-1.14.68-1.68.96-.57.01-1.15.05-1.72-.07-1.45-.28-2.72-.96-3.96-1.72-1.25-.76-2.48-1.55-3.78-2.22-4.35-2.54-8.82-4.81-13.83-5.74-.35-.14-.73-.12-1.1-.18-.33-.06-.44.11-.45.44-.01.35.08.67.14,1.01.48,2.43,1.48,4.65,2.6,6.83.02.07.04.14.07.2,1.76,3.7,4.46,6.67,7.36,9.48.08.08.19.12.29.17.63.75,1.4,1.36,2.14,1.99,1.81,1.56,3.66,3.06,5.51,4.58.23.19.5.32.72.53.18.17.18.3,0,.45-.24.18-.47.37-.71.55-.29.15-.58.3-.9.46.11.04.18.07.35.13-.75.19-1.39.41-2.1.21.23.13.45.26.68.39,1.03.72,2.28.75,3.51,1.1-2.25.59-4.23-.2-6.33-.96.46.57.95.92,1.44,1.26.91.64,1.87,1.18,2.89,1.62.1.04.25.04.26.19,0,.14-.15.16-.23.23-.1.09-.23.1-.36.11-.86.08-1.32.76-1.88,1.29-.01.01,0,.06,0,.08-1.5-.61-3-1.25-4.51-1.83-1.03-.39-2.04-.82-3-1.32-1.25-.66-2.59-1.13-3.82-1.83ZM45.4,45.59c1.43-.12,2.87-.17,4.3-.16,2.51.01,5.03-.03,7.54-.1.21,0,.41-.02.65-.13-1.49-.24-2.95-.36-4.41-.47-1.68-.12-3.36-.11-5.04-.11-.85,0-1.7-.01-2.54.1-.42.06-.87.04-1.22.34-.3.19-.25.48-.12.71.13.22.32,0,.48-.06.12-.04.26-.01.35-.12ZM62.7,73.81s-.04,0-.05,0c0,0,.02.02.02.02,0,0,.02,0,.03-.01Z"/>
  <path class="st2" d="M86.78,82.49c-.46-.15-.88-.42-1.38-.47-.02-.11-.11-.12-.19-.15-.57-.19-1.15-.22-1.74-.12-.88.14-1.72.42-2.58.65-.05-.24-.24-.17-.38-.16-1.01.02-2.02.04-3.03.1-.25.01-.55.01-.74.25-.19-.04-.37.01-.55.05-1.22.23-2.42.1-3.68-.16.18-.1.32-.18.45-.25,1.67-.93,3.09-2.16,4.41-3.53.54.02,1.08.03,1.62.05.82.06,1.63.14,2.45.09,1.1-.07,2.2-.14,3.3-.26,1.27-.13,2.47-.49,3.5-1.29.15-.11.32-.2.35-.41,1.21-.83,2.06-1.99,2.92-3.14.2-.26.39-.53.56-.81.5-.86,1.28-1.28,2.22-1.49,4.21-.92,7.87-2.93,11.12-5.72.85-.73,1.66-1.5,2.34-2.4.24-.32.53-.59.8-.88.09-.1.18-.19.18-.33.64.01,1.23.25,1.84.36.94.17,1.88.38,2.82.57.06.2.13.41.17.61.15.66.36,1.32.17,2.01-.07.26-.28.47-.29.75-.44.5-.81,1.07-1.29,1.53-.26.12-.41.35-.61.54-1.67,1.6-3.52,2.94-5.71,3.74-1,.37-2.05.53-3.08.77-.2.03-.4.06-.6.08-.03,0-.06,0-.09,0-.4.02-.8.06-1.2.06-2.2-.04-4.38-.25-6.53-.77-.35-.09-.71-.15-1.05.04-.19.11-.38.24-.35.49.04.22.23.33.44.36.24.03.48.07.73.07,1.58,0,3.16.08,4.74.14,1.42.06,2.84.06,4.26-.16.62-.02,1.22-.17,1.82-.3,1.76-.36,3.28-1.25,4.71-2.29.96-.7,1.87-1.45,2.65-2.35.62-.5,1.08-1.17,1.73-1.63-.11.5-.43.88-.75,1.22-1.09,1.18-2.24,2.32-3.57,3.21-1.04.7-2.01,1.53-3.2,1.99-.59.23-.96.7-1.27,1.24-.53.91-1.11,1.78-1.99,2.4-1.23.87-2.52,1.64-3.89,2.28-1.66.77-3.4,1.31-5.17,1.71-2.01.44-3.99,1.04-5.99,1.5-.27.06-.54.04-.82.04-.21,0-.4.04-.56.18Z"/>
  <path class="st2" d="M47.23,47.18c5.02.93,9.48,3.2,13.83,5.74-.3.22-.64.08-.96.1-.44.03-.55.14-.38.56.13.32.31.61.48.91.29.51.81.8,1.21,1.21.07.07.16.14.08.26-.06.09-.14.06-.23.05-.46-.05-.56.06-.38.5.29.74.74,1.38,1.2,2.03.54.76,1.16,1.41,2.07,1.74.27.1.62.24.53.67-.2-.02-.4-.05-.6-.07-.17-.24-.42-.24-.74-.29.2.26.4.35.63.4,0,0,0,0,0,0-.01.18.09.27.22.38.35.26.73.44,1.14.55.12.03.27.01.28.19-.24.08-.49.09-.72.02-.33-.11-.43.04-.48.32-.05.26-.13.52-.19.79-.26-.24-.55-.44-.89-.49-.54-.08-.94-.62-1.58-.44-.21.06-.43-.24-.65-.38-.94-.61-1.82-1.3-2.51-2.2-.33-.44-.67-.88-1.01-1.31.58,1.58,1.59,2.87,2.77,4.03-.12.11-.18.1-.25.07-1-.34-1.95-.76-2.8-1.4-.15-.12-.3-.22-.5-.21-.06-.09-.12-.17-.18-.26-.2-.36-.4-.72-.6-1.09-1.14-2.12-1.92-4.38-2.77-6.62-.69-1.82-1.91-3.06-3.79-3.65-.83-.26-1.67-.47-2.52-.67-.02-.07-.09-.16-.12-.07-.04.12.02.26.16.36.56.43,1.19.75,1.8,1.09,1.71.95,3.18,2.14,4.22,3.84.17.27.29.59.57.78.02.08.03.17.07.25.6,1.31,1.17,2.65,1.82,3.93.34.66.56,1.38,1.06,1.95.49.95,1.09,1.81,1.81,2.6,1,1.08,2.22,1.88,3.4,2.74-.15.24-.42.28-.66.34-.29.07-.26.21-.07.33.23.14.31.31.3.56-.29-.09-.58-.16-.86-.28-.92-.37-1.79-.83-2.65-1.34-.21-.13-.42-.39-.74-.21-.11-.06-.21-.13-.32-.19-.03-.09-.08-.16-.18-.18,0,0,0,0,0,0-.16-.15-.31-.3-.47-.43-1.23-1.06-2.41-2.18-3.47-3.42-1.51-1.75-2.76-3.68-3.83-5.73-.03-.06-.06-.12-.09-.18,0-.03,0-.05-.03-.07-.53-1.21-1.09-2.4-1.55-3.64-.43-1.17-.86-2.35-.96-3.61-.05-.6,0-.63.61-.74.15-.03.31-.07.46-.11Z"/>
  <path class="st4" d="M64.68,60.94c.08-.43-.26-.57-.53-.67-.91-.33-1.52-.98-2.07-1.74-.46-.64-.91-1.29-1.2-2.03-.17-.44-.07-.55.38-.5.09.01.17.04.23-.05.08-.12-.02-.19-.08-.26-.4-.4-.92-.7-1.21-1.21-.17-.3-.35-.59-.48-.91-.17-.42-.06-.53.38-.56.32-.02.66.12.96-.1,1.3.67,2.53,1.46,3.78,2.22,1.24.76,2.51,1.43,3.96,1.72.57.11,1.14.08,1.72.07-.25.47-.54.89-1.04,1.13-.69.33-1.39.59-2.16.69-.8.1-1.54-.03-2.26-.34-.09-.04-.19-.07-.28-.09-.02,0-.05.02-.16.07,1.19.94,2.24,2.06,3.98,1.47-.61.96-2.58,1.49-3.92,1.08Z"/>
  <path class="st0" d="M79.3,71.44c.04-.46.37-.77.65-1.09,1.46-1.69,3.22-2.93,5.46-3.37,2.41-.48,4.71-.24,6.84,1.08.08.05.21.09.19.21-.03.16-.18.11-.28.12-.72.04-1.42-.19-2.13-.26-1.79-.17-3.52.15-5.22.64-.54.16-1.07.33-1.57.6-.04.02-.08.04-.11.06h-.03s-.03.01-.03.01c-.06.03-.12.05-.18.08-.06.02-.12.05-.17.08-1.21.47-2.29,1.19-3.41,1.84Z"/>
  <path class="st4" d="M56.81,60.89c.2,0,.35.09.5.21.84.64,1.8,1.06,2.8,1.4.07.02.14.03.25-.07-1.18-1.16-2.19-2.44-2.77-4.03.34.44.68.87,1.01,1.31.69.9,1.56,1.59,2.51,2.2.22.14.44.44.65.38.64-.19,1.03.36,1.58.44.34.05.64.25.89.49-.01.57-.25,1.12-.2,1.71-.21-.35-.3-.74-.41-1.12-.04-.12-.02-.33-.2-.33-.17,0-.2.18-.23.32-.08.39-.16.78-.24,1.17-.73-.09-1.43-.3-2.11-.55-1.8-.65-3.03-1.95-4.02-3.53Z"/>
  <path class="st6" d="M57.06,65.47c.31-.18.52.08.74.21.85.51,1.73.97,2.65,1.34.28.11.57.19.86.28.55.26,1.11.49,1.7.67.12.56.24,1.12.35,1.68.02.09.06.21-.05.27-.09.05-.16-.03-.23-.07-2.03-1.27-3.98-2.67-5.84-4.18-.06-.05-.11-.13-.16-.2Z"/>
  <path class="st6" d="M105.26,61.84c.86-.32,1.74-.6,2.65-.84.03.2.05.39.08.57-1.21.6-2.41,1.23-3.63,1.8-.92.43-1.84.87-2.81,1.18-.18-.21.07-.26.14-.37.16-.23.49-.34.46-.69.13-.08.26-.17.4-.25.88-.52,1.8-.94,2.72-1.39Z"/>
  <path class="st1" d="M56.81,60.89c.99,1.58,2.22,2.88,4.02,3.53.69.25,1.39.46,2.11.55-.01.6-.02,1.21-.03,1.81-.41-.21-.74-.55-1.18-.72-1.18-.86-2.4-1.66-3.4-2.74-.72-.78-1.32-1.65-1.81-2.6.03-.03.07-.06.1-.1.06.09.12.17.18.26Z"/>
  <path class="st5" d="M74.32,51.56s-.08-.06-.08-.09c-.2-1.23-1.22-1.66-2.13-2.17-.78-.44-1.57-.85-2.35-1.27-.05-.03-.11-.05-.1-.15,1.24.16,2.47.48,3.73.16.19.08.38.15.57.22-.49.1-.98-.04-1.48.18.55.43,1.14.76,1.73,1.08.86.46.87.45.48,1.34-.11.24-.13.53-.36.71Z"/>
  <path class="st4" d="M76.77,54.3c.02-.08.04-.21.09-.32.37-.82.94-1.44,1.77-1.79.46-.2.79.09.7.59-.08.48-.32.89-.57,1.29-.22.35-.46.69-.71,1.03-.33.45-.54.46-.93.07-.22-.22-.36-.54-.35-.86Z"/>
  <path class="st5" d="M68.27,55.46c-1.83-.52-3.55-1.28-5.21-2.19-.22-.12-.48-.19-.64-.41h0c.65.15,1.21.51,1.83.74,1,.38,1.95.91,3.01,1.15,1.48.34,2.9.13,4.31-.34.11.38.39.18.6.16.13-.02.29-.15.38.03.1.2-.12.23-.22.3-.5.33-1.08.44-1.66.55-.73.13-1.45.09-2.17-.08-.09-.02-.17.01-.23.09Z"/>
  <path class="st5" d="M88.92,42.24c.15.13.33.08.5.07,2.03-.07,4.01.22,5.98.65.46.1.92.16,1.39.24-.01.13-.1.16-.21.15-1.07-.13-2.15-.29-3.23-.4-1.04-.1-2.08-.16-3.13-.06-1.08.11-2.14.28-3.22.48.64-.38,1.28-.75,1.92-1.13Z"/>
  <path class="st6" d="M88.6,76.88c-.03.21-.21.3-.35.41-1.03.79-2.23,1.15-3.5,1.29-1.1.12-2.2.19-3.3.26-.82.05-1.63-.03-2.45-.09.07-.02.14-.05.2-.05,2.43.01,4.78-.46,7.11-1.08.77-.21,1.53-.49,2.29-.73Z"/>
  <path class="st5" d="M48.78,55.53c1.07,2.04,2.32,3.97,3.83,5.73,1.06,1.23,2.23,2.36,3.47,3.42.16.14.32.29.47.43-.14,0-.28.02-.42.03-.1-.06-.21-.1-.29-.17-2.91-2.81-5.6-5.78-7.36-9.48-.03-.06-.05-.13-.07-.2.08,0,.17,0,.25,0,.02.02.02.04.02.07-.01.08,0,.15.09.18Z"/>
  <path class="st5" d="M77.37,78.69c-1.31,1.37-2.74,2.6-4.41,3.53-.13.07-.26.15-.45.25,1.26.25,2.46.39,3.68.16.18-.04.36-.09.55-.05-.04.12-.16.14-.25.21-.68.47-1.29,1.01-1.63,1.8-.08.12-.21.15-.34.14.15-.57.59-.93.95-1.35.12-.14.22-.29.34-.45-1.25.22-2.47-.02-3.7-.38.52-.57,1.19-.88,1.8-1.29,1.01-.68,1.9-1.52,2.85-2.27.19-.15.38-.25.61-.28Z"/>
  <path class="st5" d="M103.36,59.3c-1.57-1.24-1.42-2.8.06-3.78.17-.11.28-.07.27.14-.01.21-.04.42-.08.63-.19.97-.28,1.95-.25,3Z"/>
  <path class="st5" d="M72.7,47.57c-.27-.05-.58.01-.79-.24,1.46-.91,2.94-1.79,4.45-2.61.55-.3,1.12-.59,1.68-.88.14-.07.27-.16.44-.14h0c-.46.41-1.02.66-1.54.99-1.05.68-2.1,1.37-3.11,2.12-.39.23-.8.44-1.14.75Z"/>
  <path class="st6" d="M76.89,75.51c-.95.65-1.93,1.13-3.08,1.01-.14-.01-.28-.07-.41-.12-.23-.09-.24-.23-.07-.38.39-.35.79-.66,1.36-.62.73.05,1.46.08,2.2.11Z"/>
  <path class="st4" d="M61.74,66.07c.44.17.77.5,1.18.72,0,.25.01.5.02.75-.2.05-.36-.16-.6-.13.16.28.41.33.64.4,0,.05.02.1.02.15-.58-.18-1.15-.41-1.7-.67.01-.25-.07-.42-.3-.56-.19-.12-.22-.26.07-.33.24-.06.51-.09.66-.34Z"/>
  <path class="st5" d="M61.82,74.44c-.23-.13-.45-.26-.68-.39.71.2,1.35-.02,2.1-.21-.18-.06-.24-.09-.35-.13.32-.17.61-.31.9-.46.09.12.2.06.31.03.27-.09.55-.17.82-.24.13-.04.31-.12.38.04.06.12-.08.22-.19.3-.76.53-1.58.91-2.51,1.08-.27.05-.52-.19-.79-.01Z"/>
  <path class="st1" d="M79.3,71.44c1.12-.65,2.2-1.37,3.41-1.84,0,.21-.12.33-.3.43-.63.38-1.22.81-1.77,1.32-.39.37-.94.51-1.47.64-.1.02-.17.01-.22-.07-.07-.11,0-.18.09-.25.09-.07.17-.15.26-.23Z"/>
  <path class="st1" d="M102.15,63.48c.03.35-.31.46-.46.69-.08.11-.32.17-.14.37-.88.53-1.85.86-2.8,1.23.48-.56,1.15-.86,1.7-1.33.05-.03.1-.05.16-.08.09-.06.18-.12.27-.18.43-.23.85-.47,1.28-.7Z"/>
  <path class="st4" d="M75.03,57.12c.05-.58.37-1.11.86-1.55.17-.16.27-.08.36.09.1.19.11.39,0,.58-.23.41-.46.83-.7,1.24-.08.14-.16.37-.35.31-.15-.05-.15-.29-.18-.46,0-.04,0-.09,0-.22Z"/>
  <path class="st4" d="M110.72,57.29c.26-.06.38.16.55.28.27.19.52.4.82.63-.61.27-1.19.53-1.73.87-.03-.62.26-1.18.36-1.78Z"/>
  <path class="st5" d="M97.48,43.2c.3,0,.58-.16.92-.08-.22.27-.52.32-.8.4-.66.19-1.32.36-2,.46-.11.02-.51-.01-.2.33-.54.23-1.04-.04-1.55-.14.54-.25,1.13-.24,1.69-.38.59-.15,1.2-.22,1.78-.43.09-.03.15-.07.17-.16Z"/>
  <path class="st5" d="M102.15,63.48c-.43.23-.85.47-1.28.7-.01-.14.07-.2.17-.27,1.14-.68,2.24-1.43,3.45-1.99.2-.09.42-.18.51-.42.15.07.15.24.26.34-.91.44-1.84.86-2.72,1.39-.13.08-.27.17-.4.25Z"/>
  <path class="st6" d="M65.62,62.1c-.01-.18-.17-.16-.28-.19-.41-.12-.8-.29-1.14-.55-.14-.1-.24-.2-.22-.38.78.31,1.52.75,2.47.83-.32.24-.55.33-.82.29Z"/>
  <path class="st6" d="M63.97,60.98c-.23-.05-.44-.14-.63-.4.32.05.57.06.74.29-.04.04-.07.07-.11.11Z"/>
  <path class="st6" d="M62.98,67.81c-.24-.07-.48-.12-.64-.4.24-.03.4.18.6.13.04.09.09.17.05.28Z"/>
  <path class="st5" d="M56.56,65.1c.1.02.15.08.18.18-.13.01-.19-.04-.18-.18Z"/>
  <path class="st0" d="M67.6,82.23c-.07-.03-.14-.06-.21-.09.07.03.14.06.21.09Z"/>
  <path class="st0" d="M67.77,82.32c-.07,0-.14-.02-.18-.09.06.03.12.06.18.09Z"/>
  <path class="st0" d="M67.95,82.4c-.06-.03-.12-.06-.18-.09.06.03.12.06.18.09Z"/>
  <path class="st0" d="M68.12,82.49c-.06-.03-.12-.06-.18-.09.06.03.12.06.18.09Z"/>
  <path class="st5" d="M100.59,64.36c-.05.03-.1.05-.16.08.03-.07.09-.08.16-.08Z"/>
  <path class="st1" d="M82.88,69.52c.06-.03.12-.05.18-.08-.04.07-.11.08-.18.08Z"/>
  <path class="st0" d="M107.4,56.03s.08-.08.14-.02c-.04.02-.07.04-.11.06-.01-.01-.02-.02-.03-.04Z"/>
  <path class="st1" d="M83.11,69.43s.08-.04.11-.06c-.04.02-.08.04-.11.06Z"/>
  <path class="st2" d="M61.2,104.33c-.31.08-.54-.09-.8-.23-2.81-1.48-5.62-2.96-8.43-4.43-1.55-.81-3.07-1.69-4.66-2.44-.07-.3.26-.18.33-.33.3-.05.55-.25.86-.26.72-.03,1.42-.19,2.13-.3.83-.13,1.6-.5,2.48-.48,2.06.04,4.14.16,6.17-.4.38-.11.21.18.18.33-.1.52.02.68.5.48.62-.26,1.27-.41,1.89-.65.71-.27,1.4-.6,2.1-.89.96-.4.86-.21,1.22.43.32.57.71,1.05,1.48.97.43-.05.86-.07,1.29-.09.11,0,.24-.04.31.09.08.14-.01.25-.09.35-.33.44-.66.87-.98,1.31-.44.6-.85,1.22-1.12,1.98.41-.14.75-.27,1.1-.39,0,.03,0,.07,0,.1-.87.74-1.8,1.41-2.75,2.04-.15.1-.34.18-.52.19-1,.04-1.77.57-2.53,1.15-.11.04-.24.06-.3.23.2.05.37.1.51-.08.57-.21,1.1-.53,1.84-.55-.25.22-.42.36-.58.51-.52.48-1.18.81-1.64,1.37ZM60.35,98.45c-.01-.19-.01-.29-.02-.39-.06-.66-.31-.89-.97-.87-1.02.03-2.23,1.02-2.5,2.02-.11.39.02.6.39.72.85.3,1.64.07,2.39-.32.5-.26.8-.65.71-1.16ZM60.45,102.62c-.16.07-.28.16-.26.29.03.21.19.3.4.3.1,0,.27-.02.23-.11-.07-.19-.33-.25-.38-.48Z"/>
  <path class="st1" d="M55.85,84.47c.27,1.06,0,1.25-.74,1.48-1.98.62-3.9.34-5.74-.47-1.28-.56-2.35-1.48-3.39-2.4-.71-.62-1.41-1.26-2.02-1.98-.03-.06-.07-.12-.1-.18,0,0,0,0,0,0-.3-.52-.61-1.04-.89-1.57-.25-.47-.21-.53.33-.6,1.88-.22,3.77-.38,5.66-.17,1.14.13,2.26.35,3.28.93-.02.12.06.18.15.24.2.14.41.26.6.42,1.12.97,1.61,2.31,2.14,3.63.06.14,0,.22-.15.23-.31.03-.63.06-.94.09-.6.04-1.2.04-1.8.11-.96.12-1.91.08-2.87-.07-.49-.08-.97-.19-1.46-.28.98.48,2.03.68,3.1.76,1.07.08,2.14.02,3.21-.02.54-.02,1.09,0,1.62-.16Z"/>
  <path class="st5" d="M61.37,102.86c.75-.58,1.52-1.11,2.53-1.15.18,0,.37-.09.52-.19.95-.63,1.88-1.3,2.75-2.04.61-.27,1.06-.76,1.59-1.14,1.44-1.03,2.85-2.1,4.28-3.16,1.96-1.46,3.97-2.86,5.86-4.4.59-.48,1.15-.99,1.73-1.49.29.32.48.34.8.05.09-.08.17-.19.25-.29.12,0,.24,0,.35,0,0,0,0,0,0,0,.03.03.06.07.1.1.35.31.85.3,1.2.6-1.23.94-2.54,1.78-3.82,2.66-2.53,1.74-4.98,3.6-7.48,5.39-1.42,1.01-2.85,2.03-4.24,3.1-1.08.83-2.14,1.68-3.28,2.43-.6.39-.87,1.09-1.5,1.44-.12.07-.22.19-.37.19-.04.03-.09.06-.13.09,0,0,.01,0,.01,0-.32-.04-.52.21-.76.34-.46.24-.45.25-.47-.29,0-.25.05-.51-.09-.75.46-.56,1.11-.89,1.64-1.37.16-.15.34-.29.58-.51-.74.03-1.27.34-1.84.55-.08-.04-.18-.04-.21-.14Z"/>
  <path class="st1" d="M60,88.89c.04.29-.12.46-.36.56-1.84.71-3.99.52-4.64-2.15-.15-.6-.1-.7.5-.84.7-.16,1.42-.22,2.14-.16.52.05.99.23,1.33.69.33.45.69.88.93,1.39.08.16.13.32.11.5Z"/>
  <path class="st6" d="M67.17,99.39c-.35.12-.69.25-1.1.39.28-.77.69-1.38,1.12-1.98.32-.44.65-.88.98-1.31.08-.1.16-.22.09-.35-.07-.12-.2-.09-.31-.09-.43.02-.86.04-1.29.09-.77.09-1.16-.4-1.48-.97-.36-.63-.26-.83-1.22-.43-.7.29-1.39.62-2.1.89-.62.24-1.27.39-1.89.65-.48.2-.6.03-.5-.48.03-.15.2-.44-.18-.33-2.03.56-4.11.43-6.17.4-.88-.02-1.65.35-2.48.48-.71.11-1.41.28-2.13.3-.31.01-.57.2-.86.26,0-.1-.35-.04-.1-.28.19-.18-.12-.13-.19-.2-.07-.08-.23-.09-.19-.24.04-.13.17-.13.29-.14.18-.02.36,0,.5.1.53.37,1.11.23,1.66.14.93-.16,1.87-.29,2.76-.62.16-.06.31-.05.47-.05.88,0,1.75-.02,2.63,0,1.28.03,2.54-.18,3.78-.46.26-.06.5-.12.74.06.11.08.25.08.38.05.33-.07.63-.14.95.07.15.1.33-.03.49-.1.79-.35,1.49-.87,2.31-1.15.61-.21.83-.13,1.2.4.1.15.2.31.31.46.32.44.69.74,1.3.68.45-.05.92-.02,1.38-.01.46,0,.59.19.45.63-.11.36-.27.7-.49,1-.48.66-.76,1.41-1.09,2.14Z"/>
  <path class="st1" d="M30.64,74.89c-1.18,0-1.8-.41-2.22-1.42-.2-.48-.34-.97-.42-1.48-.05-.33.11-.47.35-.45.95.1,1.92.22,2.63.97.47.5.63,1.14.77,1.79.05.23-.06.38-.28.46-.3.12-.61.14-.83.13Z"/>
  <path class="st2" d="M22.84,84.28c-.82,0-1.51-.41-2.22-.74-1.74-.81-3.47-1.65-5.15-2.58-.43-.24-.42-.24-.02-.54.21-.15.41-.3.67-.36.24-.02.43.1.63.23.81.58,1.54,1.31,2.59,1.46.47.07.85.33,1.24.56.85.5,1.49,1.25,2.29,1.81,0,.05-.01.1-.02.15Z"/>
  <path class="st6" d="M22.86,84.12c-.79-.56-1.44-1.32-2.29-1.81-.4-.23-.77-.49-1.24-.56-1.05-.15-1.78-.88-2.59-1.46-.19-.14-.38-.25-.63-.23,0-.05,0-.1,0-.15.17-.1.31-.23.25-.45-.06-.2-.26-.14-.4-.16-.76-.08-.9-.27-.75-1.04.03-.15.04-.31.05-.47.03-.24-.08-.37-.31-.43-.22-.06-.43-.07-.64-.03-.46.08-.92.19-1.39.28-.8.14-1.61.24-2.43.21-.22,0-.52,0-.3-.38.06-.11-.01-.18-.1-.18-.38,0-.76-.12-1.13.06-.17-.14-.35-.28-.52-.42,2.05-.07,4.1.11,6.15.08.71-.01.86.2.86.93,0,.17,0,.35,0,.52-.04.48.1.61.58.52.25-.05.49-.15.75-.21.15-.03.28-.16.45-.08.02.17-.11.22-.21.29-.47.37-.46.89.02,1.23.47.33.93.67,1.39,1.01.28.21.59.32.94.38,1.06.18,1.87.85,2.7,1.45.32.24.64.49.93.76.28.25.64.13.94.25.15.06.32.07.49.21-.57.19-1.06-.04-1.55-.1Z"/>
  <path class="st2" d="M52.24,79.52c-1.02-.58-2.14-.8-3.28-.93-1.89-.21-3.78-.05-5.66.17-.55.07-.59.13-.33.6.29.53.59,1.05.89,1.57-.26,0-.3-.25-.42-.39-.39-.44-.68-.95-.91-1.5-.12-.29-.06-.48.28-.57,1.38-.37,2.78-.69,4.22-.63,1.8.06,3.54.46,5.12,1.39.1.06.38.07.24.33-.05,0-.1-.02-.14-.03Z"/>
  <path class="st5" d="M52.24,79.52s.1.02.14.03c1.81.93,2.68,2.59,3.38,4.38.07.18.12.35.09.54-.53.15-1.08.14-1.62.16-1.07.04-2.14.1-3.21.02-1.07-.08-2.12-.28-3.1-.76.49.09.97.21,1.46.28.95.15,1.9.19,2.87.07.6-.07,1.2-.07,1.8-.11.31-.02.63-.06.94-.09.15-.01.21-.09.15-.23-.53-1.32-1.02-2.66-2.14-3.63-.18-.16-.4-.28-.6-.42-.09-.06-.17-.12-.15-.24Z"/>
  <path class="st6" d="M41.69,94.31c-.82-.4-1.64-.81-2.42-1.28-.05-.13-.1-.26-.16-.43.52.05.92.3,1.35.46,1.07.4,2.14.83,3.2,1.26.29.12.56.29.83.45.18.1.31.26.36.47.04.14.08.3-.04.41-.11.1-.24,0-.36-.04-.29-.11-.53-.36-.87-.34,0,0,0,0,0,0-.03-.08-.1-.09-.17-.09,0,0,0,0,0,0-.03-.08-.1-.09-.17-.09,0,0,0,0,0,0-.03-.03-.06-.06-.09-.09,0,0,0,0,0,0-.03-.08-.1-.09-.17-.09,0,0,0,0,0,0-.11-.21-.3-.26-.52-.26,0,0,0,0,0,0-.04-.09-.12-.09-.2-.09-.05-.02-.1-.04-.15-.06-.03-.04-.06-.07-.09-.11,0,0,0,0,0,0-.1-.09-.18-.24-.34-.09Z"/>
  <path class="st1" d="M76.03,88.3c-.71-.33-1.34-.81-2.01-1.22.01-.04.03-.07.04-.11.38.11.76.23,1.14.34,1.38.41,2.7.99,4.01,1.57.23.1.25.21.06.36-.12.1-.25.19-.37.29-.5.38-.66.36-1.13-.11.01-.02.02-.03.04-.05.05,0,.11,0,.16.01.03.03.05.11.11.03-.04,0-.07-.02-.11-.03-.02-.05-.02-.13-.05-.16-.58-.44-1.15-.88-1.85-1.14-.06-.1-.16-.08-.26-.09-.01,0-.02-.01-.03-.02.01,0,.02.01.03.02.06.09.16.08.26.09v.16s-.02.03-.03.04Z"/>
  <path class="st1" d="M81.68,89.05c-.08.1-.15.2-.25.29-.33.29-.52.28-.8-.05.14-.25.39-.36.63-.46.17-.07.36,0,.42.22Z"/>
  <path class="st1" d="M76.98,88.9c-.38-.11-.69-.32-.95-.6.02-.01.03-.03.05-.04.36.13.66.36.94.61-.01.01-.03.03-.04.04Z"/>
  <path class="st1" d="M77.76,89.43c-.21-.06-.4-.16-.52-.35.01-.02.02-.03.04-.05.2.07.38.18.52.34-.01.02-.03.03-.04.05Z"/>
  <path class="st1" d="M77.25,89.08c-.11-.03-.22-.05-.26-.18.01-.01.03-.03.04-.04.12.01.2.07.26.17-.01.02-.03.03-.04.05Z"/>
  <path class="st2" d="M43.85,80.92c.03.06.07.12.1.18-.08-.03-.1-.1-.1-.18Z"/>
  <path class="st1" d="M108.03,53.72c-1.08-1.45-2.21-2.87-3.46-4.18-.32-.34-.42-.73-.44-1.17.09,0,.17-.03.22-.11.64-.93,1.52-1.59,2.46-2.16.7-.42,1.46-.54,2.24-.12.39.21.8.39,1.22.52.91.3,1.52.91,1.8,1.81.29.91.56,1.83.53,2.81-1.37.48-2.66,1.11-3.82,1.99-.26.2-.4.53-.75.61Z"/>
  <path class="st5" d="M108.03,53.72c.35-.08.5-.41.75-.61,1.16-.88,2.45-1.51,3.82-1.99,1.25-.37,2.54-.59,3.84-.58.73,0,1.45.11,2.18.17.1,0,.22.02.29.08.52.49,1.2.28,1.8.42.34.29.8.26,1.18.44.39.17.78.34,1.16.51.36,0,.64.22.95.36.98.45,1.95.93,2.92,1.39-.5,0-.95-.2-1.4-.38-1.48-.59-2.9-1.29-4.43-1.77-.64-.2-1.32-.23-1.94-.49-1.74-.41-3.48-.43-5.23-.04-.13,0-.26-.02-.38,0-1.55.31-2.94.97-4.19,1.95-.36.28-.61.68-1.03.88-.14-.08-.23-.21-.3-.35Z"/>
  <path class="st3" d="M61.49,45.14c-.73.01-1.44-.17-2.16-.27-1.31-.19-2.63-.34-3.96-.48-.56-.06-1.14.02-1.69-.17.14-.12.3-.08.46-.07,1.12.06,2.24.07,3.35.23.17.02.34,0,.63,0-1.71-2.1-3.98-3.22-6.26-4.33,2.27.62,4.31,1.62,6.01,3.45-.11-.55-.36-.94-.35-1.41.21,0,.27.15.35.27.43.6.83,1.21,1.13,1.88.15.33.38.42.69.48.6.12,1.22.18,1.8.4Z"/>
  <path class="st6" d="M53.27,41.9c-.04-.29-.31-.34-.49-.47-.21-.16-.47-.25-.64-.47.39-.16.66.15.96.28.71.29,1.38.68,2.01,1.11.09.06.2.12.27.21.1.11.18.26.08.39-.12.15-.22,0-.33-.06-.12-.07-.25-.14-.4-.12-.38-.29-.86-.43-1.22-.75-.04-.1-.12-.11-.21-.11h-.04Z"/>
  <path class="st6" d="M56.71,113.32c-.54-.05-1.24.02-1.94-.06-.71-.08-1.24-.4-1.75-.84-1.44-1.23-2.84-2.51-4.2-3.83-.54-.53-1.13-1.01-1.6-1.62-.07-.09-.18-.16-.17-.29.01-.65-.05-1.29.04-1.94.04-.31.14-.34.41-.2,1.85.95,3.72,1.89,5.58,2.84,1.63.83,3.27,1.62,4.87,2.49,1.26.69,2.47,1.47,3.69,2.22.34.21.3.3-.02.55-.63.48-1.39.47-2.11.57-.87.13-1.75.1-2.79.09Z"/>
  <path class="st1" d="M19.58,49.64c1.51-.65,2.99-1.3,4.66-1.28.68,0,1.24.25,1.72.68.43.38.85.78,1.19,1.24.33.44.83.7,1.15,1.15.29.41.29.56-.06.93-.64.68-1.5.93-2.37,1-2.02.15-3.78-.5-5.26-1.9-.14-.13-.19-.23-.06-.43.33-.55-.06-1.25-.69-1.27-.08,0-.17.03-.29-.11Z"/>
  <path class="st6" d="M29.46,62.38c.18.47.21.97.34,1.52-.77-.41-1.34-.96-2.02-1.37-.21-.37-.62-.53-.87-.86.17-.15,0-.23-.08-.31-.93-.99-1.86-1.99-2.8-2.97-.2-.21-.34-.46-.5-.69-.08-.12-.09-.24,0-.36.08-.1.2-.09.32-.06.36.08.64.33.91.55.8.67,1.54,1.4,2.24,2.19.67.76,1.41,1.45,2.13,2.17.09.09.2.16.34.17Z"/>
  <path class="st6" d="M29.32,59.32c.03.9.07,1.8.1,2.69-.28.05-.35-.21-.48-.36-.61-.72-1.22-1.43-1.81-2.16-.14-.17-.25-.39-.33-.6-.14-.36.06-.66.46-.68.92-.06,1.58.35,2.07,1.11Z"/>
  <path class="st1" d="M31.6,52.37s-.07-.07-.1-.11c.37-.7.89-1.3,1.37-1.92,1.15-1.49,2.31-2.97,3.38-4.52.51-.75.61-1.5.18-2.3-.03-.06-.09-.12-.03-.2.18.03.13.29.32.31.01.08,0,.18.04.25.41.89-.01,1.59-.5,2.3-1.16,1.68-2.5,3.22-3.7,4.87-.32.44-.64.88-.96,1.32Z"/>
  <path class="st1" d="M36.25,42.84c.05.06.1.12.15.18-.05.06-.11.09-.17.04-.09-.07.01-.15.02-.22Z"/>
  <path class="st3" d="M51.29,74.86c-.51-.12-.93-.43-1.4-.63-.03-.04-.05-.11-.1-.13-2.22-1.05-4.45-2.09-6.67-3.13-2.78-1.31-5.57-2.6-8.32-3.97-.93-.46-1.89-.93-2.66-1.64-1.04-.97-1.57-2.24-1.94-3.59-.22-.82-.36-1.64-.41-2.49.23,0,.13-.19.13-.29.11-1.51.45-2.97,1.03-4.36.05-.12.05-.3.26-.28.09.56.34,1.06.59,1.67.66-1.77,1.45-3.37,2.91-4.69-.21.92-.36,1.72-.35,2.65.45-.65.79-1.27,1.34-1.8.02.23.04.41.07.69.26-.44.48-.8.75-1.25.09.36.16.64.23.92.23.97.49,1.92.94,2.82.22.45.23.46.57.11,1.39-1.43,2.95-2.7,4.16-4.33-.37,1.29-.58,2.59-.6,3.92.19.05.25-.09.34-.17,1.07-.98,2.13-1.97,3.11-3.05.04-.04.09-.06.14-.1.76,2.43,1.71,4.79,2.92,7.04,1.87,3.49,4.01,6.82,6.44,9.96.38.49.85.89,1.18,1.42,0,.17-.02.35.02.51.16.76.18,1.53.22,2.3.05,1.05.01,2.1.01,3.15,0,.13-.01.26-.04.38-.04.2-.11.29-.35.18-1.28-.58-2.56-1.15-3.85-1.71-.21-.09-.42-.28-.68-.11Z"/>
  <path class="st4" d="M31.21,54.35c-.21-.02-.21.17-.26.28-.58,1.4-.92,2.85-1.03,4.36,0,.1.1.28-.13.29-.17-2.05.27-3.97,1.18-5.8.07-.14.11-.3.25-.39,0,.42,0,.84-.01,1.25Z"/>
  <path class="st1" d="M53.31,41.89c.09,0,.17,0,.21.11-.07-.04-.14-.07-.21-.11Z"/>
  <path class="st2" d="M119.16,51.27c.62.26,1.3.29,1.94.49,1.52.48,2.95,1.18,4.43,1.77.45.18.9.39,1.4.38,0,0,0-.01,0-.01.06.11.17.08.26.1.21.17.47,0,.73.12-.34.21-.77.11-1.11.35,1.31.17,2.22-.33,2.89-1.56.14.08.05.33.25.35-.03.44.05.89-.09,1.33-.4.33-.73.76-1.26.91-.4.11-.79.24-1.12.51-.09.08-.22.16-.36.1-.55-.22-1.16-.17-1.71-.39-1.87-.76-3.74-1.51-5.61-2.27-.11-.04-.22-.09-.22-.23.48.04.94-.11,1.51-.13-.85-.5-1.67-.8-2.46-1.16,0-.17.12-.25.26-.31.15-.07.28-.15.27-.34Z"/>
  <path class="st1" d="M135.92,50.34c-.12,1.63-1.15,3.23-3.05,3.47-.35.05-.71.12-1.07.08-.76-.07-1.03-.49-.84-1.24.25-.96.9-1.57,1.71-2.06.8-.49,1.65-.88,2.6-.93.65-.03.65,0,.65.67Z"/>
  <path class="st5" d="M129.86,54.58c.13-.44.05-.89.09-1.33.45.99.39,2.02.3,3.06-.04.44-.15.87-.22,1.3-.25.24-.15.6-.31.87-.01.02,0,.06,0,.08.39.7.4.77.25,1.61-.1.56-.22,1.12-.44,1.65-.09.21-.05.29.18.36.52.16,1.06.25,1.54.5-1.73.96-3.39,2.07-5.22,2.89.32-.46.82-.76,1.15-1.22.51-.1.81-.48,1.1-.85.92-1.19,1.29-2.58,1.49-4.03.01-.08.07-.2-.07-.27-.36.32-.71.64-1.17.9.02-.1.02-.14.05-.17.72-1.02,1.15-2.15,1.26-3.39.06-.65.25-1.3.03-1.96Z"/>
  <path class="st5" d="M127.19,53.99c-.09-.02-.2.02-.26-.1.09.02.2,0,.26.1Z"/>
  <path class="st2" d="M8.95,77.3c.37-.18.75-.06,1.13-.06.09,0,.16.07.1.18-.21.38.08.38.3.38.82.03,1.63-.07,2.43-.21.46-.08.92-.19,1.39-.28.21-.04.42-.03.64.03.24.06.34.19.31.43-.02.16-.02.31-.05.47-.15.77-.01.96.75,1.04.15.02.34-.04.4.16.07.22-.08.35-.25.45-.38.16-.76.32-1.14.49-.42.19-.84.04-1.02-.38-.04-.1-.06-.2-.18-.2-.88-.04-1.55-.58-2.27-.98-.87-.48-1.74-.96-2.55-1.52Z"/>
  <path class="st4" d="M42.46,94.66c.22,0,.41.05.52.26-.22,0-.39-.07-.52-.26Z"/>
  <path class="st4" d="M41.69,94.31c.16-.14.24,0,.34.09-.13.02-.23-.03-.34-.09Z"/>
  <path class="st4" d="M42.26,94.58c.08,0,.16,0,.2.09-.08,0-.15-.02-.2-.09Z"/>
  <path class="st4" d="M42.98,94.92c.07,0,.14,0,.17.09-.08.01-.14,0-.17-.09Z"/>
  <path class="st4" d="M43.24,95.1c.07,0,.14,0,.17.09-.07,0-.14,0-.17-.09Z"/>
  <path class="st4" d="M43.41,95.18c.07,0,.14,0,.17.09-.07,0-.14,0-.17-.09Z"/>
  <path class="st4" d="M43.15,95.01s.06.06.09.09c-.03-.03-.06-.06-.09-.09Z"/>
  <path class="st4" d="M42.03,94.4s.06.07.09.11c-.03-.04-.06-.07-.09-.11Z"/>
  <path class="st4" d="M31.05,110.57c.13-.16.28-.07.43-.03.82.23,1.5.72,2.2,1.17.85.53,1.73,1.01,2.61,1.51.16.09.35.15.39.36-.96-.45-1.91-.89-2.87-1.35-.86-.41-1.72-.83-2.58-1.24-.06-.14-.12-.28-.18-.42Z"/>
  <path class="st7" d="M24.07,111.44c-.01.17-.13.2-.25.17-.25-.04-.48-.15-.53-.42-.02-.15.13-.22.27-.2.26.04.42.21.5.45Z"/>
  <path class="st5" d="M78.48,43.7s.03-.02.04-.03c-.01.01-.02.03-.03.04,0,0,0,0,0,0Z"/>
  <path class="st5" d="M27.09,62.19c.17.02.27.11.32.32-.21-.05-.3-.15-.33-.32h0Z"/>
  <path class="st5" d="M27.09,62.19s-.02-.01-.03-.02c.01,0,.02.01.03.02,0,0,0,0,0,0Z"/>
  <path class="st4" d="M84.77,39.29c.02-.28.23-.49.29-.76.24-.09.25-.34.34-.52.2-.41.44-.43.77-.18-.57,1.52-1.14,3.04-1.75,4.68-.15-.74-.3-1.34-.35-1.97.27-.31.3-.75.55-1.07.11,0,.17-.07.15-.18Z"/>
  <path class="st4" d="M40.55,115.22s.12-.02.12-.03c.09-.61.37-.24.61-.13,1.58.75,3.17,1.49,4.76,2.23.13.06.27.11.39.18,1.89.97,3.83,1.85,5.74,2.77.3.15.55.4.9.5.16.05.32.35.18.62-1.46-.59-2.87-1.29-4.3-1.96-1.47-.68-2.93-1.36-4.39-2.05-.65-.33-1.28-.71-1.95-.97-.75-.29-1.42-.72-2.13-1.07.03-.03.06-.06.08-.09Z"/>
  <path class="st2" d="M40.55,115.22s-.06.06-.08.09c-.5-.2-.99-.43-1.45-.71-.17-.5-.35-.99-.52-1.49-.07-.2-.1-.4-.12-.62.78.87,1.64,1.67,2.16,2.73Z"/>
  <path class="st4" d="M50.94,40.41s.02.04.03.05c-.02,0-.04-.02-.05-.03,0,0,.03-.03.03-.03Z"/>
  <path class="st6" d="M84.77,39.29c.02.12-.04.18-.15.18,0-.11.05-.17.15-.18Z"/>
  <path class="st1" d="M67.65,127.08c.35,0,.63.21.9.35,2.21,1.13,4.56,1.93,6.87,2.83.93.36,1.86.73,2.79,1.12.31.13.63.19.95.25.58.1,1.35-.62,1.39-1.26,0-.09,0-.17,0-.26.01-.13.02-.29.16-.31.13-.02.13.15.18.25.27.57.18,1.21.34,1.8.08.3.22.58.18.92-.03.28-.15.41-.43.42-.26.01-.51-.04-.76-.12-1.49-.52-2.93-1.17-4.37-1.81-2.08-.93-4.21-1.76-6.23-2.81-.61-.32-1.18-.7-1.77-1.05-.11-.06-.23-.12-.2-.31Z"/>
  <path class="st5" d="M135.41,80.25c-.11,0-.23-.02-.44-.03.46-.32.87-.59,1.27-.87,1.32-.94,2.35-2.15,3.1-3.58.26-.49.59-.62,1.08-.55.47.07.93.17,1.39.26.16.03.28.11.31.26.12.6.19,1.19-.37,1.65-.56.45-1.12.89-1.65,1.37-.42.38-.93.61-1.42.87-.88.23-1.77.47-2.68.57-.2.02-.4.04-.6.05Z"/>
  <path class="st6" d="M99.56,97.97c.01-.13-.05-.29.12-.38.17,0,.3.08.43.17.95.64,1.9,1.28,2.85,1.93.13.09.25.18.33.45-.63-.37-1.18-.68-1.72-1.01-.66-.41-1.38-.71-2-1.16Z"/>
  <path class="st6" d="M115.53,96.29c0,.18-.02.34-.2.34-.25,0-.28-.23-.31-.43-.03-.17.08-.3.23-.29.24,0,.23.24.28.38Z"/>
  <path class="st6" d="M106.72,101.14c-.06,0-.11,0-.17,0,.06-.09.12-.08.17,0Z"/>
  <path class="st1" d="M90.46,86.22s-.02-.07-.04-.11c.01.04.02.07.04.11Z"/>
  <path class="st4" d="M129.86,54.58c.22.66.03,1.31-.03,1.96-.11,1.24-.55,2.37-1.26,3.39-.02.03-.02.07-.05.17.47-.26.82-.58,1.17-.9.14.07.08.18.07.27-.2,1.45-.58,2.85-1.49,4.03-.29.37-.59.76-1.1.85.05-.33-.12-.58-.29-.83-.92-1.35-3.06-2.16-4.63-1.75-.14.04-.27.09-.41,0-.51-.48-.86-1.07-1.11-1.72-.37-.93-.3-1.05.67-1.18.02,0,.04-.04.08-.08-.17-.27-.35-.54-.53-.81-.06-.09-.19-.17-.12-.29.07-.12.21-.06.32-.06.55-.03,1.1.13,1.75.05-1.37-1.17-2.81-2.1-4.26-3.01h0c-.08-.13-.2-.21-.34-.27-.06-.08-.13-.14-.23-.16-.04-.03-.08-.05-.12-.08h0s0-.06-.01-.08c0-.06-.01-.12-.02-.18l.03-.08c.06-.07.12-.14.18-.21l.18-.12c.4-.21.83-.28,1.28-.26,0,.14.11.19.22.23,1.87.76,3.74,1.51,5.61,2.27.55.22,1.16.17,1.71.39.14.06.26-.03.36-.1.33-.27.73-.4,1.12-.51.54-.15.86-.58,1.26-.91Z"/>
  <path class="st3" d="M118.08,54.23c.1.02.17.08.23.16,0,.24.14.29.34.28,0,0,0,0,0,0-.01.11.04.19.13.25.5.33,1,.67,1.49,1.01.59.41,1.17.82,1.75,1.24.08.06.16.14.14.25-.03.13-.15.11-.25.11-.11,0-.23,0-.34,0-.46-.01-.91-.04-1.28.33-.2.19-.48.12-.73,0-.49-.24-1-.43-1.47-.72-.5-.3-1.05-.45-1.54-.8-.57-.41-1.29-.59-2.04-.54-.69.05-1.4.09-2.07-.11-.42-.13-.65-.02-.78.37-.04.11-.06.22-.09.33-.92-.28-1.87-.51-2.53-1.28-.27-.32-.59-.61-.71-1.04.42-.2.68-.6,1.03-.88,1.25-.97,2.63-1.64,4.19-1.95.12-.02.26,0,.38,0,.11.11.24.06.37.07,1.47.03,2.94.08,4.33.62.79.36,1.61.65,2.46,1.16-.57.02-1.03.17-1.51.13-.45-.01-.88.06-1.28.26-.09,0-.16.02-.18.12-.06.07-.12.14-.18.21-.01,0-.03.01-.03.02,0,.02,0,.04,0,.06,0,.06.01.12.02.18-.06.04-.05.06.01.08,0,0,0,0,0,0,.04.03.08.05.12.08Z"/>
  <path class="st5" d="M111.57,56.39c.03-.11.06-.22.09-.33.13-.39.35-.5.78-.37.67.2,1.38.16,2.07.11.75-.05,1.47.13,2.04.54.49.35,1.05.5,1.54.8.46.28.98.47,1.47.72.25.12.53.19.73,0,.38-.37.83-.34,1.28-.33.11,0,.23,0,.34,0,.1,0,.22.02.25-.11.03-.11-.06-.19-.14-.25-.58-.42-1.16-.83-1.75-1.24-.49-.34-.99-.67-1.49-1.01-.09-.06-.14-.14-.13-.25,1.45.91,2.89,1.83,4.26,3.01-.65.09-1.2-.08-1.75-.05-.11,0-.25-.06-.32.06-.07.12.07.2.12.29.17.28.36.55.53.81-.04.05-.06.08-.08.08-.97.13-1.04.24-.67,1.18.26.65.6,1.24,1.11,1.72-.11.27-.38.16-.57.2-1.75.33-3.25,1.1-4.42,2.46-.01.02-.05.02-.09.03-.12-.6-.22-1.2-.36-1.79-.31-1.3-1.02-2.4-1.75-3.51-.51-.78-1.02-1.14-1.97-1.08-.57.04-1.02-.47-1.47-.83-.15-.12-.04-.19.08-.24.24-.1.45-.24.64-.42-.07-.2-.32-.03-.39-.2Z"/>
  <path class="st4" d="M113.71,62.95c.5-.87.72-1.83.89-2.9.8,1.15,1.38,2.28,1.56,3.58.11.83.12,1.63-.35,2.36-.4-.07-.8-.14-1.21-.21-.16-.56-.3-1.13-.5-1.68-.14-.38-.11-.83-.4-1.16Z"/>
  <path class="st1" d="M108.63,61.47c-.38-.15-.43-.3-.15-.56.61-.58,1.36-.95,2.07-1.39.33-.21.68-.37,1.01-.56,0,.09,0,.19,0,.28-.79.72-1.59,1.43-2.43,2.08-.16.05-.33.1-.49.15Z"/>
  <path class="st1" d="M113.71,62.95c.29.33.26.77.4,1.16.2.55.34,1.12.5,1.68-.3.14-.62.23-.87.45-.1.06-.19.11-.29.17.01-.28.21-.49.29-.75.2-.7-.01-1.35-.17-2.01-.05-.21-.11-.41-.17-.61.1-.03.21-.05.31-.08Z"/>
  <path class="st5" d="M113.73,66.24c.26-.22.58-.31.87-.45.4.07.8.14,1.21.21-.05.26-.11.53-.16.79-.35-.29-.73-.5-1.21-.45-.16-.02-.33-.03-.49.04-.13.05-.21,0-.22-.14Z"/>
  <path class="st5" d="M108.63,61.47c.16-.05.33-.1.49-.15.08.24.32.22.5.27.64.18,1.29.34,1.93.56-1-.12-1.99-.22-2.91-.68Z"/>
  <path class="st5" d="M111.56,59.23c0-.09,0-.19,0-.28.22-.2.5-.28.78-.37-.25.24-.46.52-.79.65Z"/>
  <polygon class="st5" points="111.83 62.24 111.8 62.23 111.83 62.22 111.83 62.24"/>
  <path class="st5" d="M89.27,41.67s.05,0,.07-.01c0,.02-.01.04-.01.07-.03,0-.05-.02-.05-.05Z"/>
  <path class="st3" d="M98.35,43.96s0-.03.01-.04c0,.01-.01.02-.02.03,0,0,0,0,0,0Z"/>
  <path class="st3" d="M113.73,66.24c.01.15.1.2.22.14.16-.07.32-.05.49-.04-.13.15-.34.2-.44.39-.65.47-1.11,1.14-1.73,1.63-.04-.14-.08-.29-.12-.43.49-.46.86-1.02,1.29-1.53.09-.06.19-.11.29-.17Z"/>
  <path class="st3" d="M76.23,84.41c.15-.08.34-.05.47-.19.04,0,.09,0,.13-.01,1.52-.59,3.02-1.22,4.58-1.71,1.3-.41,2.61-.79,3.97-.27.2.09.41.18.61.27.02.13-.13.14-.16.24-.08.03-.16.06-.24.09-.04.02-.07.03-.11.05-.53-.48-1.05-.21-1.58,0-1.61.61-3.22,1.22-4.89,1.66-.06-.23-.25-.16-.39-.15-.72.08-1.45.17-2.17.29-.33.06-.33-.04-.22-.28Z"/>
  <path class="st4" d="M74.87,84.59c.34-.78.95-1.32,1.63-1.8.09-.06.21-.09.25-.21.19-.24.48-.24.74-.25,1.01-.05,2.02-.07,3.03-.1.14,0,.33-.08.38.16-.15.06-.29.12-.44.17-1.28.44-2.54.94-3.77,1.48-.61.18-1.21.36-1.82.54Z"/>
  <path class="st5" d="M76.68,84.05c1.24-.55,2.49-1.04,3.77-1.48.15-.05.29-.11.44-.17.86-.23,1.7-.51,2.58-.65.59-.09,1.17-.07,1.74.12.08.03.17.04.19.15,0,.07-.01.14-.02.21-1.37-.52-2.67-.15-3.98.27-1.55.49-3.06,1.13-4.58,1.71-.04.01-.09,0-.13.01,0-.06-.01-.11-.02-.17Z"/>
  <path class="st5" d="M76.23,84.41c-.11.24-.11.33.22.28.72-.13,1.44-.21,2.17-.29.14-.02.33-.08.39.15-1.12.36-2.23.72-3.42.8-.38.02-.72-.09-1.08-.36.64-.1,1.14-.45,1.72-.57Z"/>
  <path class="st5" d="M85.82,82.74c.03-.1.18-.11.16-.24.42.27.84.54,1.17.93.06.08.17.16.1.26-.08.12-.2,0-.26-.04-.37-.32-.84-.53-1.17-.9Z"/>
  <path class="st5" d="M85.47,82.89s.07-.03.11-.05c-.04.02-.07.03-.11.05Z"/>
  <path class="st4" d="M82.12,89.14s-.06-.07-.1-.1c.04-.04.08-.05.13-.01,0,.04-.02.07-.03.11Z"/>
  <path class="st1" d="M62.5,105.03s.09-.06.13-.09c-.04.03-.09.06-.13.09Z"/>
  <path class="st5" d="M51.29,74.86c.26-.17.47.02.68.11,1.29.56,2.57,1.13,3.85,1.71.24.11.31.02.35-.18.02-.13.04-.26.04-.38,0-1.05.04-2.1-.01-3.15-.04-.77-.06-1.54-.22-2.3-.03-.17-.01-.34-.02-.51.28.16.46.42.69.64,1.2,1.18,2.36,2.4,3.61,3.52.21.19.52.27.63.56h0c-.5-.02-.93-.27-1.41-.37-.14-.03-.27-.1-.41-.13-.12-.03-.29-.07-.37.03-.09.12.04.24.12.34.82,1.18,1.83,2.17,3.09,2.87.35.2.35.32.02.52-.19.12-.36.28-.53.43-.6.53-.59.51-1.31.2-1.73-.76-3.48-1.49-5.22-2.22-1.12-.47-2.19-1.08-3.33-1.5-.09-.03-.2-.06-.23-.18Z"/>
  <path class="st3" d="M44.69,45.07c.35-.3.8-.28,1.22-.34.84-.11,1.69-.1,2.54-.1,1.68,0,3.36-.01,5.04.11,1.46.1,2.91.23,4.41.47-.24.11-.44.12-.65.13-2.51.07-5.03.12-7.54.1-1.44,0-2.87.04-4.3.16-.02-.16-.13-.17-.25-.16-.26.01-.4-.12-.46-.36Z"/>
  <path class="st1" d="M48.67,55.28c-.08,0-.17,0-.25,0-1.12-2.18-2.12-4.4-2.6-6.83-.07-.34-.15-.66-.14-1.01,0-.33.12-.5.45-.44.37.06.75.04,1.1.18-.15.04-.3.08-.46.11-.61.11-.65.14-.61.74.1,1.26.52,2.44.96,3.61.46,1.24,1.02,2.43,1.55,3.64Z"/>
  <path class="st5" d="M44.69,45.07c.05.24.2.37.46.36.12,0,.24,0,.25.16-.09.11-.23.09-.35.12-.16.05-.35.28-.48.06-.13-.23-.18-.52.12-.71Z"/>
  <path class="st5" d="M62.7,73.81s-.02.01-.03.01c0,0-.02-.01-.02-.02.02,0,.04,0,.05,0Z"/>
  <path class="st5" d="M60.86,74.88s.02.02.04.04c0,0-.02,0-.02,0,0,0,0-.02-.01-.03h0Z"/>
  <path class="st5" d="M62.42,52.86s-.02,0-.03-.01c0,0,0-.01,0-.02.01.01.02.03.04.04,0,0,0,0,0,0Z"/>
  <path class="st1" d="M112.15,67.94c.04.14.08.29.12.43-.78.9-1.69,1.66-2.65,2.35-1.43,1.04-2.94,1.93-4.71,2.29-.6.12-1.2.28-1.82.3-.01-.22-.25-.19-.34-.32,1.03-.24,2.08-.4,3.08-.77,2.19-.81,4.04-2.15,5.71-3.74.2-.19.35-.42.61-.54Z"/>
  <path class="st5" d="M102.75,72.99c.09.13.33.1.34.32-1.41.22-2.84.21-4.26.16-1.58-.06-3.16-.14-4.74-.14-.24,0-.49-.03-.73-.07-.21-.03-.4-.14-.44-.36-.04-.25.15-.39.35-.49.34-.19.69-.12,1.05-.04,2.15.52,4.33.73,6.53.77.4,0,.8-.04,1.2-.06.03.04.06.03.09,0,.2-.03.4-.06.6-.08ZM94.3,73.07c.3,0,.54,0,.78,0,.08,0,.2.01.2-.1,0-.07-.08-.18-.15-.19-.51-.11-.99-.37-1.54-.3-.12.02-.25.07-.35.15-.18.13-.21.26.04.36.35.14.71.06,1.01.08Z"/>
  <path class="st1" d="M102.15,73.08s-.06.05-.09,0c.03,0,.06,0,.09,0Z"/>
  <path class="st4" d="M53.58,54.6c-.28-.19-.41-.51-.57-.78-1.03-1.69-2.51-2.89-4.22-3.84-.61-.34-1.24-.66-1.8-1.09-.13-.1-.2-.24-.16-.36.03-.09.1,0,.12.07.04.2.23.2.37.25.93.3,1.82.69,2.71,1.09,2.02.92,2.95,2.66,3.55,4.65Z"/>
  <path class="st6" d="M53.58,54.6c-.6-2-1.52-3.73-3.55-4.65-.89-.4-1.78-.79-2.71-1.09-.14-.05-.33-.05-.37-.25.85.2,1.69.41,2.52.67,1.88.59,3.1,1.83,3.79,3.65.85,2.24,1.63,4.51,2.77,6.62.2.36.4.73.6,1.09-.03.03-.07.06-.1.1-.49-.57-.72-1.3-1.06-1.95-.66-1.29-1.22-2.62-1.82-3.93-.04-.08-.05-.16-.07-.25Z"/>
  <path class="st1" d="M48.78,55.53c-.09-.03-.1-.1-.09-.18.03.06.06.12.09.18Z"/>
  <path class="st1" d="M60.35,98.45c.09.51-.21.9-.71,1.16-.76.39-1.54.62-2.39.32-.36-.13-.49-.34-.39-.72.27-1,1.48-1.98,2.5-2.02.66-.02.91.21.97.87,0,.1.01.2.02.39Z"/>
  <path class="st6" d="M60.45,102.62c.05.23.3.29.38.48.04.09-.14.11-.23.11-.21,0-.37-.09-.4-.3-.02-.14.1-.22.26-.29Z"/>
  <path class="st6" d="M61.37,102.86c.04.1.14.1.21.14-.14.18-.31.14-.51.08.06-.16.18-.19.3-.23Z"/>
  <path class="st6" d="M77.28,89.03c-.06-.1-.14-.16-.26-.17-.29-.25-.58-.48-.94-.61,0-.05,0-.11-.01-.16h0c.69.26,1.27.7,1.85,1.14.04.03.04.1.05.16h0c-.05,0-.11-.01-.16-.02-.14-.16-.31-.28-.52-.34Z"/>
  <path class="st6" d="M76.07,88.1c-.1,0-.19,0-.26-.09h0c.09,0,.2-.01.26.09,0,0,0,0,0,0Z"/>
  <path class="st6" d="M77.96,89.39s.07.02.11.03c-.06.08-.08,0-.11-.03,0,0,0,0,0,0Z"/>
  <path class="st6" d="M75.81,88.01s-.02-.01-.03-.02c.01,0,.02.01.03.02h0Z"/>
  <path class="st4" d="M118.63,51.92c-1.4-.55-2.86-.59-4.33-.62-.12,0-.26.04-.37-.07,1.75-.39,3.49-.37,5.23.04,0,.19-.12.27-.27.34-.14.06-.25.14-.26.31Z"/>
  <path class="st5" d="M118.65,54.66c-.2.02-.35-.03-.34-.28.14.06.26.14.34.28Z"/>
  <path class="st5" d="M118.14,53.59c.02-.1.09-.13.18-.12-.06.04-.12.08-.18.12Z"/>
  <path class="st5" d="M118.08,54.23s-.08-.05-.12-.08c.04.03.08.05.12.08Z"/>
  <path class="st5" d="M117.97,54.14c-.07-.01-.07-.04-.01-.08.02.02.02.05.01.08Z"/>
  <path class="st5" d="M117.93,53.89s0-.04,0-.06c0,0,.02-.01.03-.02,0,.03-.02.06-.03.08Z"/>
  <path class="st3" d="M94.3,73.07c-.3-.02-.66.05-1.01-.08-.25-.1-.23-.23-.04-.36.1-.07.23-.13.35-.15.54-.07,1.03.19,1.54.3.06.01.15.12.15.19,0,.11-.12.1-.2.1-.24,0-.49,0-.78,0Z"/>
</svg>